<svg xmlns="http://www.w3.org/2000/svg" xmlns:xlink="http://www.w3.org/1999/xlink" width="500" zoomAndPan="magnify" viewBox="0 0 375 374.999991" height="500" preserveAspectRatio="xMidYMid meet" version="1.0"><defs><clipPath id="f64e1e2456"><path d="M 10.71875 12.5 L 363.96875 12.5 L 363.96875 367 L 10.71875 367 Z M 10.71875 12.5 " clip-rule="nonzero"/></clipPath></defs><g clip-path="url(#f64e1e2456)"><path fill="#78d1cc" d="M 363.984375 189.460938 C 363.984375 287.164062 284.929688 366.363281 187.398438 366.363281 C 89.871094 366.363281 10.8125 287.164062 10.8125 189.460938 C 10.8125 91.753906 89.871094 12.554688 187.398438 12.554688 C 284.929688 12.554688 363.984375 91.753906 363.984375 189.460938 " fill-opacity="1" fill-rule="nonzero"/></g><path fill="#fac565" d="M 256.167969 97.398438 C 256.167969 122.753906 235.660156 143.300781 210.347656 143.300781 C 185.050781 143.300781 164.53125 122.753906 164.53125 97.398438 C 164.53125 72.042969 185.050781 51.496094 210.347656 51.496094 C 235.660156 51.496094 256.167969 72.042969 256.167969 97.398438 " fill-opacity="1" fill-rule="nonzero"/><path fill="#fac565" d="M 172.636719 97.398438 L 164.53125 97.398438 C 164.53125 97.398438 154.375 234.324219 180.800781 277.691406 C 207.222656 321.058594 281.140625 320.035156 290.699219 271.035156 C 290.699219 271.035156 243 290.613281 256.167969 97.398438 L 172.636719 97.398438 " fill-opacity="1" fill-rule="nonzero"/><path fill="#ffffff" d="M 290.144531 366.847656 C 281.410156 373.378906 272.03125 379.101562 262.125 383.890625 C 260.632812 384.621094 259.113281 385.320312 257.585938 386.007812 C 236.074219 395.671875 212.226562 401.046875 187.128906 401.046875 C 162.023438 401.046875 138.171875 395.671875 116.664062 386.007812 C 115.136719 385.320312 113.617188 384.621094 112.109375 383.890625 C 102.203125 379.089844 92.839844 373.378906 84.101562 366.847656 C 85.632812 332.648438 103.777344 302.777344 130.628906 285.136719 C 146.867188 274.46875 166.273438 268.273438 187.128906 268.273438 C 190.300781 268.273438 193.449219 268.421875 196.550781 268.703125 C 213.824219 270.269531 229.855469 276.09375 243.617188 285.136719 C 255.976562 293.257812 266.5 303.972656 274.382812 316.496094 C 283.648438 331.195312 289.3125 348.398438 290.144531 366.847656 " fill-opacity="1" fill-rule="nonzero"/><path fill="#fbd5c0" d="M 243.609375 285.136719 C 242.035156 297.066406 236.78125 307.84375 229.011719 316.269531 C 218.613281 327.570312 203.691406 334.652344 187.128906 334.652344 C 160.570312 334.652344 138.265625 316.460938 131.933594 291.839844 C 131.371094 289.652344 130.933594 287.414062 130.628906 285.136719 C 146.855469 274.46875 166.261719 268.273438 187.128906 268.273438 C 190.300781 268.273438 193.449219 268.410156 196.550781 268.703125 C 197.09375 268.746094 197.632812 268.804688 198.171875 268.859375 C 198.496094 268.894531 198.835938 268.929688 199.160156 268.972656 C 199.53125 269.007812 199.902344 269.0625 200.261719 269.109375 C 200.488281 269.128906 200.722656 269.164062 200.949219 269.199219 C 201.273438 269.230469 201.613281 269.289062 201.949219 269.332031 C 202.207031 269.367188 202.464844 269.414062 202.734375 269.445312 C 202.960938 269.480469 203.1875 269.515625 203.410156 269.558594 C 203.792969 269.613281 204.175781 269.683594 204.558594 269.738281 C 206.1875 270.019531 207.828125 270.335938 209.425781 270.695312 C 209.796875 270.773438 210.15625 270.855469 210.503906 270.933594 C 210.71875 270.988281 210.921875 271.035156 211.125 271.089844 C 211.507812 271.179688 211.898438 271.269531 212.269531 271.371094 C 212.351562 271.382812 212.40625 271.394531 212.449219 271.40625 C 212.921875 271.53125 213.40625 271.652344 213.878906 271.789062 C 214.394531 271.914062 214.902344 272.058594 215.398438 272.207031 C 215.980469 272.363281 216.542969 272.53125 217.105469 272.703125 C 217.542969 272.835938 217.984375 272.972656 218.421875 273.117188 C 218.703125 273.207031 218.996094 273.296875 219.265625 273.386719 C 219.738281 273.535156 220.199219 273.691406 220.636719 273.851562 C 221.199219 274.042969 221.75 274.234375 222.300781 274.4375 C 222.34375 274.457031 222.378906 274.46875 222.414062 274.480469 C 222.988281 274.683594 223.546875 274.898438 224.109375 275.113281 C 224.527344 275.28125 224.953125 275.4375 225.382812 275.617188 C 226.507812 276.058594 227.585938 276.519531 228.664062 276.992188 L 230.082031 277.636719 C 230.507812 277.828125 230.9375 278.03125 231.363281 278.230469 C 231.757812 278.421875 232.140625 278.605469 232.519531 278.796875 C 232.882812 278.964844 233.230469 279.144531 233.589844 279.324219 C 233.816406 279.4375 234.050781 279.550781 234.277344 279.675781 C 235.199219 280.148438 236.121094 280.644531 237.007812 281.136719 C 237.34375 281.320312 237.671875 281.511719 237.984375 281.691406 C 238.210938 281.8125 238.402344 281.925781 238.605469 282.039062 L 239.367188 282.488281 C 239.628906 282.648438 239.898438 282.804688 240.15625 282.964844 C 240.3125 283.066406 240.480469 283.164062 240.652344 283.265625 C 241.132812 283.550781 241.605469 283.839844 242.078125 284.144531 C 242.597656 284.472656 243.101562 284.800781 243.609375 285.136719 " fill-opacity="1" fill-rule="nonzero"/><path fill="#fbd5c0" d="M 206.988281 245.125 L 206.988281 284.257812 C 206.988281 294.160156 198.902344 302.269531 189.019531 302.269531 L 185.230469 302.269531 C 175.347656 302.269531 167.273438 294.160156 167.273438 284.257812 L 167.273438 245.125 C 167.273438 235.226562 175.347656 227.125 185.230469 227.125 L 189.019531 227.125 C 198.902344 227.125 206.988281 235.226562 206.988281 245.125 " fill-opacity="1" fill-rule="nonzero"/><path fill="#f8a29e" d="M 206.988281 245.125 L 206.988281 265.832031 C 201.082031 269.121094 194.820312 271.035156 188.457031 271.035156 C 180.96875 271.035156 173.816406 268.9375 167.273438 265.300781 L 167.273438 245.125 C 167.273438 235.226562 175.347656 227.125 185.230469 227.125 L 189.019531 227.125 C 198.902344 227.125 206.988281 235.226562 206.988281 245.125 " fill-opacity="1" fill-rule="nonzero"/><path fill="#fbd5c0" d="M 248.339844 220.863281 C 248.339844 220.863281 260.101562 216.855469 267.625 203.71875 C 275.789062 189.460938 270.660156 180.570312 269.042969 178.644531 C 264.621094 173.386719 257.796875 176.765625 256.671875 178.644531 C 255.550781 180.527344 239.269531 210.152344 248.339844 220.863281 " fill-opacity="1" fill-rule="nonzero"/><path fill="#f8a29e" d="M 259.878906 183.320312 C 259.878906 183.320312 267.332031 184.277344 264.710938 194.789062 C 262.082031 205.308594 255.1875 209.464844 245.824219 214.835938 C 236.457031 220.210938 250.511719 185.460938 259.878906 183.320312 " fill-opacity="1" fill-rule="nonzero"/><path fill="#fbd5c0" d="M 128.953125 220.863281 C 128.953125 220.863281 117.191406 216.855469 109.683594 203.71875 C 101.519531 189.460938 106.644531 180.570312 108.265625 178.644531 C 112.683594 173.386719 119.507812 176.765625 120.632812 178.644531 C 121.757812 180.527344 138.039062 210.152344 128.953125 220.863281 " fill-opacity="1" fill-rule="nonzero"/><path fill="#f8a29e" d="M 117.429688 183.320312 C 117.429688 183.320312 109.960938 184.277344 112.59375 194.789062 C 115.214844 205.308594 122.117188 209.464844 131.484375 214.835938 C 140.851562 220.210938 126.792969 185.460938 117.429688 183.320312 " fill-opacity="1" fill-rule="nonzero"/><path fill="#fbd5c0" d="M 259.878906 176.382812 C 259.878906 133.207031 228.058594 98.199219 188.816406 98.199219 C 149.5625 98.199219 117.742188 133.207031 117.742188 176.382812 C 117.742188 219.558594 149.5625 264.691406 188.816406 264.691406 C 225.695312 264.691406 259.878906 219.195312 259.878906 176.382812 " fill-opacity="1" fill-rule="nonzero"/><path fill="#fac565" d="M 195.203125 144.855469 C 195.203125 144.855469 208.582031 187.9375 258.867188 183.667969 C 258.867188 183.667969 267.636719 170.953125 264.667969 143.300781 C 261.316406 112.132812 233.769531 85.910156 188.816406 95.292969 C 188.816406 95.292969 184.710938 117.449219 195.203125 144.855469 " fill-opacity="1" fill-rule="nonzero"/><path fill="#fac565" d="M 197.453125 98.199219 C 197.453125 98.199219 199.328125 90.042969 192.582031 83.65625 C 185.835938 77.269531 96.503906 90.378906 117.742188 176.382812 C 117.742188 176.382812 138.554688 124.949219 193.707031 120.445312 L 197.453125 98.199219 " fill-opacity="1" fill-rule="nonzero"/></svg>