<svg xmlns="http://www.w3.org/2000/svg" xmlns:xlink="http://www.w3.org/1999/xlink" width="500" zoomAndPan="magnify" viewBox="0 0 375 374.999991" height="500" preserveAspectRatio="xMidYMid meet" version="1.0"><defs><clipPath id="dd906d1714"><path d="M 1.5625 3.125 L 373.5625 3.125 L 373.5625 375 L 1.5625 375 Z M 1.5625 3.125 " clip-rule="nonzero"/></clipPath><clipPath id="d1e66d5718"><path d="M 131 19 L 246.128906 19 L 246.128906 133.996094 L 131 133.996094 Z M 131 19 " clip-rule="nonzero"/></clipPath><clipPath id="1418c2faec"><path d="M 1.617188 189.183594 C 1.617188 291.914062 84.890625 375.183594 187.617188 375.183594 C 290.347656 375.183594 373.617188 291.914062 373.617188 189.183594 C 373.617188 86.453125 290.347656 3.183594 187.617188 3.183594 C 84.890625 3.179688 1.617188 86.453125 1.617188 189.183594 Z M 1.617188 189.183594 " clip-rule="nonzero"/></clipPath><clipPath id="5045fa20ba"><path d="M 227.179688 65.300781 L 278 65.300781 L 278 99.648438 L 227.179688 99.648438 Z M 227.179688 65.300781 " clip-rule="nonzero"/></clipPath><clipPath id="1bc5f61110"><path d="M 1.617188 189.183594 C 1.617188 291.914062 84.890625 375.183594 187.617188 375.183594 C 290.347656 375.183594 373.617188 291.914062 373.617188 189.183594 C 373.617188 86.453125 290.347656 3.183594 187.617188 3.183594 C 84.890625 3.179688 1.617188 86.453125 1.617188 189.183594 Z M 1.617188 189.183594 " clip-rule="nonzero"/></clipPath><clipPath id="8a9f037394"><path d="M 79 272 L 297 272 L 297 375 L 79 375 Z M 79 272 " clip-rule="nonzero"/></clipPath><clipPath id="40a81051b6"><path d="M 1.617188 189.183594 C 1.617188 291.914062 84.890625 375.183594 187.617188 375.183594 C 290.347656 375.183594 373.617188 291.914062 373.617188 189.183594 C 373.617188 86.453125 290.347656 3.183594 187.617188 3.183594 C 84.890625 3.179688 1.617188 86.453125 1.617188 189.183594 Z M 1.617188 189.183594 " clip-rule="nonzero"/></clipPath><clipPath id="02b50c73b8"><path d="M 128 272 L 247.3125 272 L 247.3125 342 L 128 342 Z M 128 272 " clip-rule="nonzero"/></clipPath><clipPath id="e2069daa85"><path d="M 1.617188 189.183594 C 1.617188 291.914062 84.890625 375.183594 187.617188 375.183594 C 290.347656 375.183594 373.617188 291.914062 373.617188 189.183594 C 373.617188 86.453125 290.347656 3.183594 187.617188 3.183594 C 84.890625 3.179688 1.617188 86.453125 1.617188 189.183594 Z M 1.617188 189.183594 " clip-rule="nonzero"/></clipPath><clipPath id="a2119dca4b"><path d="M 166 228.742188 L 209 228.742188 L 209 308 L 166 308 Z M 166 228.742188 " clip-rule="nonzero"/></clipPath><clipPath id="df1c0f412d"><path d="M 1.617188 189.183594 C 1.617188 291.914062 84.890625 375.183594 187.617188 375.183594 C 290.347656 375.183594 373.617188 291.914062 373.617188 189.183594 C 373.617188 86.453125 290.347656 3.183594 187.617188 3.183594 C 84.890625 3.179688 1.617188 86.453125 1.617188 189.183594 Z M 1.617188 189.183594 " clip-rule="nonzero"/></clipPath><clipPath id="9741b94ba3"><path d="M 166 228.742188 L 209 228.742188 L 209 275 L 166 275 Z M 166 228.742188 " clip-rule="nonzero"/></clipPath><clipPath id="84856f8947"><path d="M 1.617188 189.183594 C 1.617188 291.914062 84.890625 375.183594 187.617188 375.183594 C 290.347656 375.183594 373.617188 291.914062 373.617188 189.183594 C 373.617188 86.453125 290.347656 3.183594 187.617188 3.183594 C 84.890625 3.179688 1.617188 86.453125 1.617188 189.183594 Z M 1.617188 189.183594 " clip-rule="nonzero"/></clipPath><clipPath id="9b8caeb71a"><path d="M 249 174.261719 L 278 174.261719 L 278 222.820312 L 249 222.820312 Z M 249 174.261719 " clip-rule="nonzero"/></clipPath><clipPath id="0ddc90f2ca"><path d="M 1.617188 189.183594 C 1.617188 291.914062 84.890625 375.183594 187.617188 375.183594 C 290.347656 375.183594 373.617188 291.914062 373.617188 189.183594 C 373.617188 86.453125 290.347656 3.183594 187.617188 3.183594 C 84.890625 3.179688 1.617188 86.453125 1.617188 189.183594 Z M 1.617188 189.183594 " clip-rule="nonzero"/></clipPath><clipPath id="ca1307e9af"><path d="M 246.128906 182.550781 L 270 182.550781 L 270 216.898438 L 246.128906 216.898438 Z M 246.128906 182.550781 " clip-rule="nonzero"/></clipPath><clipPath id="6dc9d5b146"><path d="M 1.617188 189.183594 C 1.617188 291.914062 84.890625 375.183594 187.617188 375.183594 C 290.347656 375.183594 373.617188 291.914062 373.617188 189.183594 C 373.617188 86.453125 290.347656 3.183594 187.617188 3.183594 C 84.890625 3.179688 1.617188 86.453125 1.617188 189.183594 Z M 1.617188 189.183594 " clip-rule="nonzero"/></clipPath><clipPath id="83b8915629"><path d="M 101 174.261719 L 130 174.261719 L 130 222.820312 L 101 222.820312 Z M 101 174.261719 " clip-rule="nonzero"/></clipPath><clipPath id="dbcc257064"><path d="M 1.617188 189.183594 C 1.617188 291.914062 84.890625 375.183594 187.617188 375.183594 C 290.347656 375.183594 373.617188 291.914062 373.617188 189.183594 C 373.617188 86.453125 290.347656 3.183594 187.617188 3.183594 C 84.890625 3.179688 1.617188 86.453125 1.617188 189.183594 Z M 1.617188 189.183594 " clip-rule="nonzero"/></clipPath><clipPath id="4af1c1e5e5"><path d="M 108 182.550781 L 132.433594 182.550781 L 132.433594 216.898438 L 108 216.898438 Z M 108 182.550781 " clip-rule="nonzero"/></clipPath><clipPath id="eb8c1a53f5"><path d="M 1.617188 189.183594 C 1.617188 291.914062 84.890625 375.183594 187.617188 375.183594 C 290.347656 375.183594 373.617188 291.914062 373.617188 189.183594 C 373.617188 86.453125 290.347656 3.183594 187.617188 3.183594 C 84.890625 3.179688 1.617188 86.453125 1.617188 189.183594 Z M 1.617188 189.183594 " clip-rule="nonzero"/></clipPath><clipPath id="4f94a2081b"><path d="M 114 93 L 265 93 L 265 269 L 114 269 Z M 114 93 " clip-rule="nonzero"/></clipPath><clipPath id="f2d5e5e768"><path d="M 1.617188 189.183594 C 1.617188 291.914062 84.890625 375.183594 187.617188 375.183594 C 290.347656 375.183594 373.617188 291.914062 373.617188 189.183594 C 373.617188 86.453125 290.347656 3.183594 187.617188 3.183594 C 84.890625 3.179688 1.617188 86.453125 1.617188 189.183594 Z M 1.617188 189.183594 " clip-rule="nonzero"/></clipPath><clipPath id="ba13b604fd"><path d="M 188.09375 88 L 270 88 L 270 183.734375 L 188.09375 183.734375 Z M 188.09375 88 " clip-rule="nonzero"/></clipPath><clipPath id="18c1822383"><path d="M 1.617188 189.183594 C 1.617188 291.914062 84.890625 375.183594 187.617188 375.183594 C 290.347656 375.183594 373.617188 291.914062 373.617188 189.183594 C 373.617188 86.453125 290.347656 3.183594 187.617188 3.183594 C 84.890625 3.179688 1.617188 86.453125 1.617188 189.183594 Z M 1.617188 189.183594 " clip-rule="nonzero"/></clipPath><clipPath id="cb8c20df2e"><path d="M 111.113281 76 L 198.753906 76 L 198.753906 175.445312 L 111.113281 175.445312 Z M 111.113281 76 " clip-rule="nonzero"/></clipPath><clipPath id="828afbaaf8"><path d="M 1.617188 189.183594 C 1.617188 291.914062 84.890625 375.183594 187.617188 375.183594 C 290.347656 375.183594 373.617188 291.914062 373.617188 189.183594 C 373.617188 86.453125 290.347656 3.183594 187.617188 3.183594 C 84.890625 3.179688 1.617188 86.453125 1.617188 189.183594 Z M 1.617188 189.183594 " clip-rule="nonzero"/></clipPath><clipPath id="c5b75087ef"><path d="M 200 174 L 259 174 L 259 209.792969 L 200 209.792969 Z M 200 174 " clip-rule="nonzero"/></clipPath><clipPath id="a797f90550"><path d="M 1.617188 189.183594 C 1.617188 291.914062 84.890625 375.183594 187.617188 375.183594 C 290.347656 375.183594 373.617188 291.914062 373.617188 189.183594 C 373.617188 86.453125 290.347656 3.183594 187.617188 3.183594 C 84.890625 3.179688 1.617188 86.453125 1.617188 189.183594 Z M 1.617188 189.183594 " clip-rule="nonzero"/></clipPath><clipPath id="950b8f43ae"><path d="M 174 187.289062 L 202 187.289062 L 202 193.210938 L 174 193.210938 Z M 174 187.289062 " clip-rule="nonzero"/></clipPath><clipPath id="d324b2a2eb"><path d="M 1.617188 189.183594 C 1.617188 291.914062 84.890625 375.183594 187.617188 375.183594 C 290.347656 375.183594 373.617188 291.914062 373.617188 189.183594 C 373.617188 86.453125 290.347656 3.183594 187.617188 3.183594 C 84.890625 3.179688 1.617188 86.453125 1.617188 189.183594 Z M 1.617188 189.183594 " clip-rule="nonzero"/></clipPath><clipPath id="c4913a721a"><path d="M 119.402344 174 L 178.621094 174 L 178.621094 209.792969 L 119.402344 209.792969 Z M 119.402344 174 " clip-rule="nonzero"/></clipPath><clipPath id="958d1873d1"><path d="M 1.617188 189.183594 C 1.617188 291.914062 84.890625 375.183594 187.617188 375.183594 C 290.347656 375.183594 373.617188 291.914062 373.617188 189.183594 C 373.617188 86.453125 290.347656 3.183594 187.617188 3.183594 C 84.890625 3.179688 1.617188 86.453125 1.617188 189.183594 Z M 1.617188 189.183594 " clip-rule="nonzero"/></clipPath><clipPath id="223b8cfb7f"><path d="M 253 172 L 268.628906 172 L 268.628906 193.210938 L 253 193.210938 Z M 253 172 " clip-rule="nonzero"/></clipPath><clipPath id="2e058795da"><path d="M 1.617188 189.183594 C 1.617188 291.914062 84.890625 375.183594 187.617188 375.183594 C 290.347656 375.183594 373.617188 291.914062 373.617188 189.183594 C 373.617188 86.453125 290.347656 3.183594 187.617188 3.183594 C 84.890625 3.179688 1.617188 86.453125 1.617188 189.183594 Z M 1.617188 189.183594 " clip-rule="nonzero"/></clipPath><clipPath id="2bd1dc0af2"><path d="M 111.113281 172 L 126.511719 172 L 126.511719 193.210938 L 111.113281 193.210938 Z M 111.113281 172 " clip-rule="nonzero"/></clipPath><clipPath id="f0969063e2"><path d="M 1.617188 189.183594 C 1.617188 291.914062 84.890625 375.183594 187.617188 375.183594 C 290.347656 375.183594 373.617188 291.914062 373.617188 189.183594 C 373.617188 86.453125 290.347656 3.183594 187.617188 3.183594 C 84.890625 3.179688 1.617188 86.453125 1.617188 189.183594 Z M 1.617188 189.183594 " clip-rule="nonzero"/></clipPath></defs><g clip-path="url(#dd906d1714)"><path fill="#eec124" d="M 1.617188 189.183594 C 1.617188 291.914062 84.890625 375.183594 187.617188 375.183594 C 290.347656 375.183594 373.617188 291.914062 373.617188 189.183594 C 373.617188 86.453125 290.347656 3.183594 187.617188 3.183594 C 84.890625 3.179688 1.617188 86.453125 1.617188 189.183594 " fill-opacity="1" fill-rule="nonzero"/></g><g clip-path="url(#d1e66d5718)"><g clip-path="url(#1418c2faec)"><path fill="#331520" d="M 246.019531 76.472656 C 246.019531 108.199219 220.296875 133.921875 188.570312 133.921875 C 156.839844 133.921875 131.117188 108.199219 131.117188 76.472656 C 131.117188 44.75 156.839844 19.03125 188.570312 19.03125 C 220.296875 19.03125 246.019531 44.75 246.019531 76.472656 " fill-opacity="1" fill-rule="nonzero"/></g></g><g clip-path="url(#5045fa20ba)"><g clip-path="url(#1bc5f61110)"><path fill="#ffffff" d="M 227.332031 96.011719 C 227.332031 96.011719 272.632812 66.109375 274.113281 65.8125 C 275.59375 65.515625 277.15625 70.84375 277.15625 70.84375 L 230.589844 99.269531 L 227.332031 96.011719 " fill-opacity="1" fill-rule="nonzero"/></g></g><g clip-path="url(#8a9f037394)"><g clip-path="url(#40a81051b6)"><path fill="#78d1cc" d="M 296.140625 375.695312 C 286.941406 382.5625 277.0625 388.578125 266.628906 393.613281 C 265.042969 394.382812 263.453125 395.117188 261.84375 395.839844 C 239.1875 406 214.066406 411.648438 187.621094 411.648438 C 161.175781 411.648438 136.066406 406 113.410156 395.839844 C 111.789062 395.117188 110.191406 394.382812 108.613281 393.613281 C 98.179688 388.566406 88.304688 382.5625 79.113281 375.695312 C 80.722656 339.738281 99.828125 308.328125 128.121094 289.78125 C 145.210938 278.566406 165.652344 272.050781 187.621094 272.050781 C 190.972656 272.050781 194.289062 272.207031 197.546875 272.503906 C 215.75 274.148438 232.636719 280.273438 247.121094 289.78125 C 260.152344 298.320312 271.222656 309.582031 279.539062 322.753906 C 289.296875 338.210938 295.253906 356.292969 296.140625 375.695312 " fill-opacity="1" fill-rule="nonzero"/></g></g><g clip-path="url(#02b50c73b8)"><g clip-path="url(#e2069daa85)"><path fill="#ba5c21" d="M 247.121094 289.78125 C 245.464844 302.324219 239.933594 313.65625 231.75 322.515625 C 220.78125 334.394531 205.078125 341.84375 187.621094 341.84375 C 159.660156 341.84375 136.164062 322.71875 129.496094 296.828125 C 128.902344 294.53125 128.441406 292.175781 128.121094 289.78125 C 145.210938 278.566406 165.652344 272.050781 187.621094 272.050781 C 190.972656 272.050781 194.289062 272.195312 197.558594 272.503906 C 198.125 272.550781 198.695312 272.609375 199.25 272.667969 C 199.605469 272.703125 199.960938 272.738281 200.304688 272.785156 C 200.695312 272.820312 201.085938 272.882812 201.464844 272.929688 C 201.703125 272.953125 201.953125 272.988281 202.1875 273.023438 C 202.53125 273.058594 202.886719 273.117188 203.242188 273.164062 C 203.515625 273.199219 203.789062 273.25 204.070312 273.285156 C 204.308594 273.320312 204.546875 273.355469 204.78125 273.402344 C 205.183594 273.460938 205.578125 273.53125 205.980469 273.59375 C 207.707031 273.886719 209.425781 274.21875 211.117188 274.597656 L 212.257812 274.847656 C 212.46875 274.90625 212.695312 274.953125 212.90625 275.011719 C 213.308594 275.109375 213.722656 275.203125 214.117188 275.308594 C 214.1875 275.320312 214.246094 275.332031 214.292969 275.34375 C 214.800781 275.476562 215.3125 275.605469 215.808594 275.746094 C 216.355469 275.878906 216.886719 276.03125 217.40625 276.1875 C 218.011719 276.351562 218.605469 276.527344 219.207031 276.707031 C 219.667969 276.847656 220.132812 276.992188 220.59375 277.144531 C 220.890625 277.238281 221.199219 277.335938 221.480469 277.429688 C 221.96875 277.582031 222.453125 277.75 222.925781 277.914062 C 223.519531 278.117188 224.097656 278.316406 224.679688 278.53125 C 224.726562 278.554688 224.761719 278.566406 224.796875 278.578125 C 225.402344 278.792969 225.996094 279.015625 226.585938 279.242188 C 227.023438 279.417969 227.476562 279.585938 227.925781 279.773438 C 229.097656 280.234375 230.246094 280.722656 231.382812 281.21875 L 232.875 281.894531 C 233.324219 282.09375 233.773438 282.308594 234.226562 282.523438 C 234.640625 282.722656 235.042969 282.914062 235.445312 283.113281 C 235.824219 283.292969 236.191406 283.480469 236.558594 283.671875 C 236.796875 283.789062 237.042969 283.90625 237.28125 284.039062 C 238.265625 284.535156 239.222656 285.054688 240.171875 285.578125 C 240.515625 285.765625 240.871094 285.96875 241.199219 286.15625 C 241.425781 286.289062 241.640625 286.40625 241.851562 286.523438 L 242.65625 287 L 243.476562 287.496094 L 244.007812 287.816406 C 244.515625 288.113281 245.015625 288.417969 245.511719 288.738281 C 246.058594 289.082031 246.589844 289.425781 247.121094 289.78125 " fill-opacity="1" fill-rule="nonzero"/></g></g><g clip-path="url(#a2119dca4b)"><g clip-path="url(#df1c0f412d)"><path fill="#ba5c21" d="M 208.535156 247.714844 L 208.535156 288.859375 C 208.535156 299.269531 200.023438 307.796875 189.625 307.796875 L 185.621094 307.796875 C 175.222656 307.796875 166.71875 299.269531 166.71875 288.859375 L 166.71875 247.714844 C 166.71875 237.304688 175.222656 228.789062 185.621094 228.789062 L 189.625 228.789062 C 200.023438 228.789062 208.535156 237.304688 208.535156 247.714844 " fill-opacity="1" fill-rule="nonzero"/></g></g><g clip-path="url(#9741b94ba3)"><g clip-path="url(#84856f8947)"><path fill="#9e392b" d="M 208.535156 247.714844 L 208.535156 269.480469 C 202.320312 272.941406 195.722656 274.953125 189.03125 274.953125 C 181.132812 274.953125 173.597656 272.75 166.71875 268.925781 L 166.71875 247.714844 C 166.71875 237.304688 175.222656 228.789062 185.621094 228.789062 L 189.625 228.789062 C 200.023438 228.789062 208.535156 237.304688 208.535156 247.714844 " fill-opacity="1" fill-rule="nonzero"/></g></g><g clip-path="url(#9b8caeb71a)"><g clip-path="url(#0ddc90f2ca)"><path fill="#ba5c21" d="M 252.109375 222.203125 C 252.109375 222.203125 264.496094 217.988281 272.410156 204.179688 C 281.007812 189.183594 275.605469 179.839844 273.902344 177.816406 C 269.246094 172.285156 262.058594 175.835938 260.871094 177.816406 C 259.6875 179.792969 242.539062 210.941406 252.109375 222.203125 " fill-opacity="1" fill-rule="nonzero"/></g></g><g clip-path="url(#ca1307e9af)"><g clip-path="url(#6dc9d5b146)"><path fill="#9e392b" d="M 264.25 182.730469 C 264.25 182.730469 272.113281 183.734375 269.351562 194.785156 C 266.582031 205.847656 259.320312 210.21875 249.445312 215.867188 C 239.578125 221.515625 254.382812 184.980469 264.25 182.730469 " fill-opacity="1" fill-rule="nonzero"/></g></g><g clip-path="url(#83b8915629)"><g clip-path="url(#dbcc257064)"><path fill="#ba5c21" d="M 126.355469 222.203125 C 126.355469 222.203125 113.96875 217.988281 106.054688 204.179688 C 97.445312 189.183594 102.847656 179.839844 104.550781 177.816406 C 109.207031 172.285156 116.394531 175.835938 117.578125 177.816406 C 118.765625 179.792969 135.925781 210.941406 126.355469 222.203125 " fill-opacity="1" fill-rule="nonzero"/></g></g><g clip-path="url(#4af1c1e5e5)"><g clip-path="url(#eb8c1a53f5)"><path fill="#9e392b" d="M 114.203125 182.730469 C 114.203125 182.730469 106.351562 183.734375 109.113281 194.785156 C 111.871094 205.847656 119.144531 210.21875 129.007812 215.867188 C 138.886719 221.515625 124.082031 184.980469 114.203125 182.730469 " fill-opacity="1" fill-rule="nonzero"/></g></g><g clip-path="url(#4f94a2081b)"><g clip-path="url(#f2d5e5e768)"><path fill="#ba5c21" d="M 264.25 175.433594 C 264.25 130.039062 230.742188 93.230469 189.398438 93.230469 C 148.066406 93.230469 114.535156 130.039062 114.535156 175.433594 C 114.535156 220.828125 148.066406 268.285156 189.398438 268.285156 C 228.246094 268.285156 264.25 220.449219 264.25 175.433594 " fill-opacity="1" fill-rule="nonzero"/></g></g><g clip-path="url(#ba13b604fd)"><g clip-path="url(#18c1822383)"><path fill="#331520" d="M 196.136719 142.285156 C 196.136719 142.285156 210.21875 187.585938 263.183594 183.097656 C 263.183594 183.097656 272.433594 169.726562 269.304688 140.648438 C 265.777344 107.878906 236.746094 80.308594 189.398438 90.171875 C 189.398438 90.171875 185.074219 113.46875 196.136719 142.285156 " fill-opacity="1" fill-rule="nonzero"/></g></g><g clip-path="url(#cb8c20df2e)"><g clip-path="url(#828afbaaf8)"><path fill="#331520" d="M 198.503906 93.230469 C 198.503906 93.230469 200.472656 84.65625 193.367188 77.941406 C 186.257812 71.222656 92.175781 85.011719 114.535156 175.433594 C 114.535156 175.433594 136.46875 121.355469 194.550781 116.621094 L 198.503906 93.230469 " fill-opacity="1" fill-rule="nonzero"/></g></g><g clip-path="url(#c5b75087ef)"><g clip-path="url(#a797f90550)"><path fill="#ffffff" d="M 229.617188 206.535156 C 216.105469 206.535156 205.148438 199.925781 205.148438 191.765625 C 205.148438 183.605469 216.105469 176.984375 229.617188 176.984375 C 243.132812 176.984375 254.074219 183.605469 254.074219 191.765625 C 254.074219 199.925781 243.132812 206.535156 229.617188 206.535156 Z M 229.617188 174.023438 C 213.394531 174.023438 200.246094 181.972656 200.246094 191.765625 C 200.246094 201.558594 213.394531 209.496094 229.617188 209.496094 C 245.832031 209.496094 258.988281 201.558594 258.988281 191.765625 C 258.988281 181.972656 245.832031 174.023438 229.617188 174.023438 " fill-opacity="1" fill-rule="nonzero"/></g></g><g clip-path="url(#950b8f43ae)"><g clip-path="url(#d324b2a2eb)"><path fill="#ffffff" d="M 174.6875 190.332031 C 175.089844 191.398438 175.234375 192.226562 175.234375 193.082031 C 179.238281 191.363281 184.117188 190.34375 189.398438 190.34375 C 193.722656 190.34375 197.785156 191.03125 201.300781 192.214844 C 201.3125 192.132812 201.324219 192.039062 201.335938 191.957031 C 201.417969 190.972656 201.539062 190 201.667969 189.019531 C 197.925781 187.976562 193.78125 187.382812 189.398438 187.382812 C 183.9375 187.382812 178.832031 188.285156 174.464844 189.847656 C 174.535156 190.011719 174.617188 190.179688 174.6875 190.332031 " fill-opacity="1" fill-rule="nonzero"/></g></g><g clip-path="url(#c4913a721a)"><g clip-path="url(#958d1873d1)"><path fill="#ffffff" d="M 149.179688 206.535156 C 135.664062 206.535156 124.710938 199.925781 124.710938 191.765625 C 124.710938 183.605469 135.664062 176.984375 149.179688 176.984375 C 162.691406 176.984375 173.648438 183.605469 173.648438 191.765625 C 173.648438 199.925781 162.691406 206.535156 149.179688 206.535156 Z M 149.179688 174.023438 C 132.964844 174.023438 119.820312 181.972656 119.820312 191.765625 C 119.820312 201.558594 132.964844 209.496094 149.179688 209.496094 C 165.402344 209.496094 178.550781 201.558594 178.550781 191.765625 C 178.550781 181.972656 165.402344 174.023438 149.179688 174.023438 " fill-opacity="1" fill-rule="nonzero"/></g></g><g clip-path="url(#223b8cfb7f)"><g clip-path="url(#2e058795da)"><path fill="#ffffff" d="M 253.09375 182.730469 L 264.25 172.25 L 268.191406 172.25 L 268.191406 174.878906 L 258.988281 193.082031 L 253.09375 182.730469 " fill-opacity="1" fill-rule="nonzero"/></g></g><g clip-path="url(#2bd1dc0af2)"><g clip-path="url(#f0969063e2)"><path fill="#ffffff" d="M 126.214844 182.730469 L 115.046875 172.25 L 111.113281 172.25 L 111.113281 174.878906 L 120.316406 193.082031 L 126.214844 182.730469 " fill-opacity="1" fill-rule="nonzero"/></g></g></svg>