<svg xmlns="http://www.w3.org/2000/svg" xmlns:xlink="http://www.w3.org/1999/xlink" width="500" zoomAndPan="magnify" viewBox="0 0 375 374.999991" height="500" preserveAspectRatio="xMidYMid meet" version="1.0"><defs><clipPath id="e9df097374"><path d="M 7.5 0 L 367.5 0 L 367.5 361 L 7.5 361 Z M 7.5 0 " clip-rule="nonzero"/></clipPath></defs><g clip-path="url(#e9df097374)"><path fill="#56317e" d="M 367.5 180.085938 C 367.5 182.550781 367.449219 185.015625 367.347656 187.480469 C 367.246094 189.945312 367.09375 192.40625 366.890625 194.863281 C 366.6875 197.324219 366.4375 199.773438 366.132812 202.222656 C 365.828125 204.671875 365.476562 207.109375 365.070312 209.542969 C 364.667969 211.976562 364.214844 214.402344 363.710938 216.816406 C 363.207031 219.230469 362.65625 221.632812 362.050781 224.023438 C 361.449219 226.414062 360.800781 228.792969 360.097656 231.160156 C 359.398438 233.523438 358.652344 235.875 357.855469 238.207031 C 357.058594 240.542969 356.214844 242.859375 355.320312 245.15625 C 354.429688 247.457031 353.492188 249.738281 352.507812 252 C 351.519531 254.257812 350.488281 256.5 349.410156 258.71875 C 348.332031 260.933594 347.210938 263.128906 346.042969 265.304688 C 344.875 267.476562 343.664062 269.621094 342.40625 271.746094 C 341.152344 273.867188 339.851562 275.964844 338.507812 278.03125 C 337.167969 280.101562 335.78125 282.140625 334.355469 284.152344 C 332.929688 286.164062 331.464844 288.148438 329.957031 290.101562 C 328.449219 292.050781 326.898438 293.972656 325.3125 295.859375 C 323.726562 297.746094 322.101562 299.601562 320.441406 301.425781 C 318.777344 303.246094 317.078125 305.03125 315.339844 306.785156 C 313.605469 308.535156 311.832031 310.25 310.027344 311.929688 C 308.21875 313.605469 306.378906 315.25 304.503906 316.851562 C 302.628906 318.453125 300.722656 320.019531 298.785156 321.542969 C 296.847656 323.066406 294.878906 324.550781 292.878906 325.996094 C 290.878906 327.4375 288.847656 328.839844 286.792969 330.199219 C 284.734375 331.5625 282.652344 332.878906 280.539062 334.152344 C 278.425781 335.429688 276.289062 336.660156 274.128906 337.84375 C 271.96875 339.03125 269.78125 340.171875 267.574219 341.269531 C 265.363281 342.367188 263.132812 343.417969 260.878906 344.425781 C 258.628906 345.429688 256.355469 346.386719 254.066406 347.300781 C 251.773438 348.210938 249.464844 349.074219 247.136719 349.890625 C 244.808594 350.710938 242.46875 351.476562 240.109375 352.199219 C 237.75 352.917969 235.378906 353.589844 232.992188 354.214844 C 230.605469 354.835938 228.207031 355.410156 225.796875 355.933594 C 223.386719 356.457031 220.96875 356.933594 218.539062 357.359375 C 216.109375 357.785156 213.671875 358.160156 211.226562 358.484375 C 208.78125 358.808594 206.332031 359.082031 203.875 359.304688 C 201.417969 359.53125 198.957031 359.703125 196.496094 359.828125 C 194.03125 359.949219 191.566406 360.019531 189.101562 360.042969 C 186.636719 360.0625 184.167969 360.035156 181.703125 359.957031 C 179.238281 359.875 176.777344 359.746094 174.316406 359.5625 C 171.859375 359.382812 169.402344 359.152344 166.953125 358.871094 C 164.503906 358.585938 162.058594 358.253906 159.625 357.871094 C 157.1875 357.488281 154.757812 357.058594 152.339844 356.574219 C 149.921875 356.09375 147.515625 355.5625 145.117188 354.980469 C 142.71875 354.398438 140.335938 353.769531 137.964844 353.089844 C 135.59375 352.410156 133.238281 351.683594 130.898438 350.90625 C 128.554688 350.128906 126.234375 349.304688 123.925781 348.433594 C 121.617188 347.5625 119.328125 346.644531 117.0625 345.679688 C 114.792969 344.710938 112.542969 343.699219 110.316406 342.644531 C 108.085938 341.585938 105.882812 340.480469 103.699219 339.332031 C 101.515625 338.183594 99.359375 336.988281 97.226562 335.753906 C 95.09375 334.515625 92.984375 333.234375 90.90625 331.910156 C 88.824219 330.585938 86.773438 329.21875 84.746094 327.8125 C 82.722656 326.402344 80.726562 324.953125 78.761719 323.460938 C 76.796875 321.972656 74.863281 320.441406 72.960938 318.871094 C 71.0625 317.300781 69.191406 315.691406 67.355469 314.046875 C 65.519531 312.398438 63.71875 310.714844 61.953125 308.992188 C 60.1875 307.273438 58.457031 305.515625 56.761719 303.722656 C 55.066406 301.933594 53.410156 300.105469 51.789062 298.246094 C 50.171875 296.386719 48.589844 294.492188 47.046875 292.566406 C 45.507812 290.644531 44.007812 288.6875 42.542969 286.699219 C 41.082031 284.710938 39.664062 282.695312 38.285156 280.652344 C 36.90625 278.605469 35.570312 276.535156 34.277344 274.433594 C 32.984375 272.332031 31.738281 270.207031 30.53125 268.054688 C 26.769531 261.371094 23.453125 254.472656 20.578125 247.359375 C 17.707031 240.246094 15.300781 232.976562 13.363281 225.554688 C 11.425781 218.132812 9.972656 210.617188 9.003906 203.007812 C 8.035156 195.398438 7.558594 187.757812 7.570312 180.085938 C 7.570312 80.691406 88.140625 0.121094 187.535156 0.121094 C 286.929688 0.121094 367.5 80.691406 367.5 180.085938 Z M 367.5 180.085938 " fill-opacity="1" fill-rule="nonzero"/></g><path fill="#18b9cd" d="M 343.265625 270.3125 C 341.285156 273.730469 339.195312 277.078125 336.996094 280.355469 C 334.792969 283.636719 332.488281 286.839844 330.078125 289.964844 C 327.664062 293.09375 325.152344 296.140625 322.542969 299.101562 C 319.929688 302.0625 317.222656 304.9375 314.421875 307.71875 C 311.621094 310.503906 308.734375 313.191406 305.753906 315.785156 C 302.777344 318.378906 299.71875 320.871094 296.574219 323.265625 C 293.433594 325.65625 290.214844 327.941406 286.925781 330.125 C 283.632812 332.304688 280.269531 334.375 276.84375 336.332031 C 273.414062 338.292969 269.925781 340.136719 266.375 341.867188 C 262.824219 343.597656 259.222656 345.207031 255.566406 346.699219 C 251.910156 348.191406 248.207031 349.5625 244.460938 350.8125 C 240.714844 352.0625 236.933594 353.183594 233.113281 354.183594 C 229.292969 355.183594 225.441406 356.058594 221.5625 356.804688 C 217.6875 357.550781 213.789062 358.167969 209.871094 358.660156 C 205.953125 359.148438 202.019531 359.507812 198.078125 359.742188 C 194.136719 359.972656 190.191406 360.074219 186.242188 360.042969 C 182.292969 360.015625 178.347656 359.859375 174.410156 359.570312 C 170.472656 359.28125 166.546875 358.863281 162.636719 358.316406 C 158.726562 357.773438 154.835938 357.097656 150.96875 356.296875 C 147.105469 355.492188 143.269531 354.5625 139.460938 353.507812 C 135.65625 352.453125 131.890625 351.273438 128.164062 349.972656 C 124.433594 348.667969 120.753906 347.246094 117.117188 345.699219 C 113.484375 344.15625 109.90625 342.492188 106.378906 340.710938 C 102.855469 338.929688 99.394531 337.035156 95.992188 335.027344 C 92.59375 333.019531 89.261719 330.902344 86.003906 328.671875 C 82.742188 326.445312 79.558594 324.113281 76.453125 321.675781 C 73.34375 319.238281 70.320312 316.699219 67.378906 314.066406 C 64.441406 311.429688 61.589844 308.699219 58.832031 305.875 C 56.070312 303.050781 53.40625 300.136719 50.835938 297.140625 C 48.269531 294.140625 45.800781 291.058594 43.433594 287.898438 C 41.070312 284.734375 38.808594 281.5 36.65625 278.1875 C 34.503906 274.878906 32.460938 271.5 30.53125 268.054688 L 60.085938 249.789062 C 66.371094 245.902344 73.046875 242.878906 80.117188 240.714844 L 80.117188 240.535156 C 78.039062 219.097656 95.027344 193.386719 123.375 178.074219 C 146.289062 165.710938 170.789062 163.273438 188.230469 169.914062 C 205.644531 163.273438 230.167969 165.710938 253.0625 178.074219 C 281.609375 193.5 298.621094 219.433594 296.25 240.960938 C 305.617188 243.929688 314.214844 248.378906 322.050781 254.308594 Z M 343.265625 270.3125 " fill-opacity="1" fill-rule="nonzero"/><path fill="#fcc00a" d="M 264.460938 123.308594 C 255.5 146.808594 232.53125 163.074219 208.046875 168.816406 C 194.710938 171.941406 180.980469 172.316406 167.335938 170.894531 C 128.972656 166.894531 101.1875 130.980469 109.429688 93.296875 C 109.667969 92.210938 109.933594 91.132812 110.222656 90.054688 C 117.199219 64.273438 139.246094 43.171875 165.3125 37.332031 C 191.375 31.496094 220.316406 41.171875 237.628906 61.515625 C 265.089844 69.558594 273.421875 99.808594 264.460938 123.308594 Z M 211.234375 348.925781 C 212.300781 345.921875 213.214844 342.875 213.976562 339.78125 C 214.738281 336.6875 215.339844 333.566406 215.789062 330.410156 C 216.234375 327.257812 216.523438 324.085938 216.648438 320.90625 C 216.777344 317.722656 216.746094 314.539062 216.554688 311.359375 C 216.363281 308.179688 216.011719 305.019531 215.5 301.875 C 214.988281 298.730469 214.324219 295.617188 213.5 292.539062 C 212.675781 289.460938 211.699219 286.433594 210.570312 283.457031 C 209.441406 280.476562 208.167969 277.5625 206.746094 274.710938 C 206.613281 274.445312 206.433594 274.21875 206.207031 274.023438 C 205.980469 273.832031 205.726562 273.6875 205.445312 273.597656 C 205.164062 273.503906 204.875 273.46875 204.582031 273.492188 C 204.285156 273.515625 204.003906 273.59375 203.742188 273.730469 C 203.476562 273.863281 203.246094 274.042969 203.054688 274.269531 C 202.863281 274.492188 202.71875 274.746094 202.628906 275.03125 C 202.535156 275.3125 202.5 275.601562 202.523438 275.894531 C 202.546875 276.191406 202.625 276.472656 202.761719 276.734375 C 204.113281 279.449219 205.328125 282.226562 206.402344 285.0625 C 207.476562 287.898438 208.40625 290.78125 209.1875 293.710938 C 209.972656 296.640625 210.609375 299.605469 211.09375 302.597656 C 211.578125 305.59375 211.914062 308.601562 212.097656 311.628906 C 212.28125 314.660156 212.3125 317.6875 212.191406 320.71875 C 212.066406 323.75 211.792969 326.765625 211.367188 329.769531 C 210.945312 332.773438 210.367188 335.746094 209.644531 338.691406 C 208.917969 341.636719 208.050781 344.539062 207.03125 347.398438 C 206.929688 347.675781 206.886719 347.960938 206.898438 348.257812 C 206.914062 348.554688 206.980469 348.835938 207.105469 349.105469 C 207.234375 349.375 207.40625 349.609375 207.625 349.808594 C 207.839844 350.007812 208.089844 350.160156 208.367188 350.261719 C 208.648438 350.363281 208.933594 350.40625 209.230469 350.394531 C 209.527344 350.378906 209.808594 350.3125 210.078125 350.1875 C 210.347656 350.0625 210.582031 349.890625 210.78125 349.671875 C 210.980469 349.453125 211.132812 349.203125 211.234375 348.925781 Z M 167.035156 350.261719 C 167.316406 350.160156 167.5625 350.007812 167.78125 349.808594 C 168 349.609375 168.171875 349.375 168.300781 349.105469 C 168.425781 348.835938 168.492188 348.554688 168.507812 348.257812 C 168.519531 347.960938 168.472656 347.675781 168.371094 347.398438 C 167.355469 344.539062 166.484375 341.636719 165.761719 338.691406 C 165.035156 335.746094 164.460938 332.773438 164.035156 329.769531 C 163.609375 326.765625 163.335938 323.75 163.214844 320.71875 C 163.09375 317.6875 163.125 314.660156 163.308594 311.628906 C 163.492188 308.601562 163.824219 305.59375 164.3125 302.597656 C 164.796875 299.605469 165.433594 296.640625 166.214844 293.710938 C 167 290.78125 167.929688 287.898438 169.003906 285.0625 C 170.078125 282.226562 171.292969 279.449219 172.644531 276.734375 C 172.78125 276.472656 172.859375 276.191406 172.882812 275.894531 C 172.90625 275.601562 172.871094 275.3125 172.777344 275.027344 C 172.6875 274.746094 172.542969 274.492188 172.351562 274.265625 C 172.160156 274.042969 171.929688 273.863281 171.664062 273.726562 C 171.402344 273.59375 171.121094 273.515625 170.824219 273.492188 C 170.53125 273.46875 170.242188 273.503906 169.957031 273.59375 C 169.675781 273.6875 169.421875 273.832031 169.199219 274.023438 C 168.972656 274.214844 168.792969 274.445312 168.660156 274.710938 C 167.238281 277.5625 165.960938 280.476562 164.835938 283.457031 C 163.707031 286.433594 162.730469 289.460938 161.90625 292.539062 C 161.082031 295.617188 160.417969 298.730469 159.90625 301.875 C 159.394531 305.019531 159.042969 308.179688 158.851562 311.359375 C 158.660156 314.539062 158.628906 317.722656 158.753906 320.90625 C 158.882812 324.085938 159.171875 327.257812 159.617188 330.410156 C 160.0625 333.566406 160.667969 336.6875 161.429688 339.78125 C 162.191406 342.875 163.105469 345.921875 164.171875 348.925781 C 164.273438 349.203125 164.425781 349.453125 164.625 349.671875 C 164.824219 349.890625 165.058594 350.0625 165.328125 350.1875 C 165.597656 350.3125 165.878906 350.382812 166.175781 350.394531 C 166.472656 350.40625 166.757812 350.363281 167.035156 350.261719 Z M 167.035156 350.261719 " fill-opacity="1" fill-rule="nonzero"/><path fill="#ed6e0f" d="M 265.960938 138.371094 C 265.960938 147.558594 261.890625 155.316406 256.300781 157.886719 C 256.246094 160.203125 256.070312 162.511719 255.78125 164.8125 C 255.492188 167.109375 255.085938 169.390625 254.5625 171.648438 C 254.042969 173.90625 253.410156 176.132812 252.660156 178.328125 C 251.914062 180.519531 251.058594 182.671875 250.09375 184.777344 C 249.128906 186.886719 248.058594 188.9375 246.886719 190.9375 C 245.714844 192.9375 244.441406 194.871094 243.074219 196.742188 C 241.703125 198.609375 240.242188 200.40625 238.691406 202.128906 C 237.140625 203.851562 235.507812 205.492188 233.789062 207.046875 L 234.371094 210.957031 L 238.191406 236.871094 L 187.9375 266.378906 L 136.878906 236.199219 L 140.65625 210.9375 L 141.257812 207.023438 C 139.542969 205.46875 137.910156 203.832031 136.359375 202.109375 C 134.8125 200.390625 133.351562 198.59375 131.984375 196.726562 C 130.617188 194.859375 129.347656 192.925781 128.175781 190.929688 C 127.003906 188.933594 125.9375 186.878906 124.972656 184.773438 C 124.007812 182.667969 123.152344 180.519531 122.40625 178.328125 C 121.660156 176.136719 121.027344 173.914062 120.503906 171.65625 C 119.984375 169.402344 119.578125 167.125 119.289062 164.828125 C 119 162.53125 118.824219 160.222656 118.769531 157.910156 C 113.15625 155.359375 109.066406 147.582031 109.066406 138.371094 C 109.035156 134.402344 109.820312 130.601562 111.414062 126.96875 C 113.464844 132.847656 116.300781 138.316406 119.929688 143.378906 C 120.875 138.308594 122.371094 133.40625 124.429688 128.679688 C 126.488281 123.949219 129.050781 119.511719 132.117188 115.367188 C 132.144531 113.570312 132.257812 111.777344 132.460938 109.992188 C 132.664062 108.207031 132.953125 106.433594 133.328125 104.679688 C 133.703125 102.921875 134.164062 101.1875 134.707031 99.472656 C 135.25 97.761719 135.875 96.078125 136.582031 94.425781 C 137.292969 92.773438 138.078125 91.160156 138.941406 89.585938 C 139.804688 88.007812 140.746094 86.480469 141.757812 84.996094 C 142.769531 83.511719 143.851562 82.082031 145.003906 80.703125 C 146.15625 79.324219 147.375 78.003906 148.65625 76.742188 C 149.9375 75.480469 151.273438 74.285156 152.671875 73.15625 C 154.066406 72.027344 155.515625 70.964844 157.015625 69.976562 C 158.515625 68.988281 160.0625 68.074219 161.648438 67.234375 C 163.238281 66.394531 164.863281 65.632812 166.527344 64.953125 C 168.191406 64.273438 169.882812 63.671875 171.605469 63.15625 C 173.324219 62.640625 175.066406 62.207031 176.832031 61.863281 C 178.59375 61.515625 180.367188 61.253906 182.15625 61.078125 C 183.945312 60.90625 185.738281 60.816406 187.535156 60.816406 C 189.332031 60.816406 191.125 60.90625 192.914062 61.078125 C 194.703125 61.253906 196.476562 61.515625 198.242188 61.863281 C 200.003906 62.207031 201.746094 62.640625 203.46875 63.15625 C 205.1875 63.671875 206.878906 64.273438 208.542969 64.953125 C 210.207031 65.632812 211.832031 66.394531 213.421875 67.234375 C 215.011719 68.074219 216.554688 68.988281 218.054688 69.976562 C 219.554688 70.964844 221.003906 72.027344 222.398438 73.15625 C 223.796875 74.285156 225.136719 75.480469 226.417969 76.742188 C 227.695312 78.003906 228.914062 79.324219 230.066406 80.703125 C 231.21875 82.082031 232.300781 83.511719 233.3125 84.996094 C 234.328125 86.480469 235.265625 88.007812 236.128906 89.585938 C 236.996094 91.160156 237.78125 92.773438 238.488281 94.425781 C 239.195312 96.078125 239.820312 97.761719 240.363281 99.472656 C 240.90625 101.1875 241.367188 102.921875 241.742188 104.679688 C 242.117188 106.433594 242.40625 108.207031 242.609375 109.992188 C 242.8125 111.777344 242.925781 113.570312 242.957031 115.367188 C 245.730469 119.117188 248.089844 123.109375 250.039062 127.34375 C 251.992188 131.582031 253.488281 135.972656 254.535156 140.515625 C 258.066406 136.136719 260.972656 131.375 263.253906 126.230469 C 265.113281 130.0625 266.015625 134.109375 265.960938 138.371094 Z M 265.960938 138.371094 " fill-opacity="1" fill-rule="nonzero"/><path fill="#242156" d="M 163.078125 288.445312 C 162.675781 289.695312 162.320312 290.96875 161.960938 292.246094 C 114.945312 287.011719 80.09375 267.988281 80.09375 245.320312 C 80.09375 245.027344 80.09375 244.738281 80.117188 244.449219 C 79.9375 242.582031 79.890625 240.710938 79.980469 238.835938 C 80.027344 239.417969 80.070312 239.976562 80.117188 240.535156 C 80.09375 240.828125 80.09375 241.117188 80.09375 241.40625 C 80.09375 264.253906 115.484375 283.390625 163.078125 288.445312 Z M 188.140625 289.761719 C 181.121094 289.761719 174.257812 289.472656 167.617188 288.867188 C 167.214844 290.121094 166.832031 291.394531 166.476562 292.691406 C 173.472656 293.339844 180.714844 293.675781 188.140625 293.675781 C 195.246094 293.675781 202.203125 293.363281 208.929688 292.757812 C 208.59375 291.460938 208.214844 290.1875 207.8125 288.9375 C 201.441406 289.496094 194.867188 289.761719 188.140625 289.761719 Z M 296.429688 238.902344 C 296.386719 239.886719 296.296875 240.847656 296.160156 241.808594 C 295.78125 264.613281 260.078125 283.660156 212.351562 288.511719 C 212.753906 289.761719 213.109375 291.039062 213.46875 292.3125 C 260.636719 287.257812 295.78125 268.347656 296.160156 245.722656 C 296.453125 243.457031 296.542969 241.183594 296.429688 238.902344 Z M 245.546875 193.074219 C 242.261719 198.265625 238.34375 202.921875 233.789062 207.046875 L 233.789062 206.980469 C 232.226562 208.40625 230.597656 209.757812 228.910156 211.035156 C 227.222656 212.3125 225.476562 213.507812 223.675781 214.621094 C 221.878906 215.734375 220.03125 216.765625 218.136719 217.710938 C 216.242188 218.652344 214.304688 219.507812 212.332031 220.273438 C 210.359375 221.039062 208.351562 221.710938 206.316406 222.289062 C 204.28125 222.867188 202.222656 223.351562 200.140625 223.742188 C 198.058594 224.128906 195.964844 224.421875 193.855469 224.617188 C 191.75 224.8125 189.636719 224.910156 187.519531 224.910156 C 185.402344 224.910156 183.289062 224.808594 181.183594 224.613281 C 179.074219 224.417969 176.980469 224.125 174.898438 223.734375 C 172.820312 223.34375 170.761719 222.859375 168.722656 222.28125 C 166.6875 221.699219 164.683594 221.027344 162.710938 220.261719 C 160.734375 219.496094 158.800781 218.640625 156.90625 217.695312 C 155.011719 216.75 153.167969 215.71875 151.367188 214.605469 C 149.566406 213.488281 147.824219 212.292969 146.136719 211.015625 C 144.449219 209.738281 142.820312 208.386719 141.257812 206.957031 L 141.257812 207.023438 C 136.917969 203.082031 133.148438 198.65625 129.945312 193.746094 L 106.339844 218.15625 L 136.878906 236.199219 L 140.65625 210.9375 C 142.226562 212.402344 143.867188 213.789062 145.570312 215.101562 C 147.273438 216.410156 149.035156 217.640625 150.851562 218.785156 C 152.671875 219.933594 154.539062 220.992188 156.457031 221.960938 C 158.375 222.933594 160.332031 223.8125 162.332031 224.601562 C 164.332031 225.386719 166.367188 226.078125 168.429688 226.675781 C 170.496094 227.273438 172.585938 227.773438 174.695312 228.171875 C 176.808594 228.574219 178.933594 228.875 181.074219 229.078125 C 183.214844 229.277344 185.359375 229.378906 187.507812 229.378906 C 189.65625 229.378906 191.800781 229.28125 193.941406 229.078125 C 196.082031 228.878906 198.210938 228.578125 200.320312 228.179688 C 202.433594 227.777344 204.523438 227.28125 206.585938 226.6875 C 208.652344 226.089844 210.683594 225.398438 212.6875 224.613281 C 214.6875 223.824219 216.644531 222.949219 218.5625 221.976562 C 220.480469 221.007812 222.351562 219.949219 224.167969 218.804688 C 225.988281 217.660156 227.75 216.429688 229.453125 215.121094 C 231.15625 213.808594 232.796875 212.421875 234.371094 210.957031 L 238.191406 236.871094 L 270.097656 218.15625 Z M 160.875 133.382812 C 162.882812 133.382812 164.507812 130.882812 164.507812 127.796875 C 164.507812 124.707031 162.882812 122.207031 160.875 122.207031 C 158.871094 122.207031 157.242188 124.707031 157.242188 127.796875 C 157.242188 130.882812 158.871094 133.382812 160.875 133.382812 Z M 214.53125 133.382812 C 216.535156 133.382812 218.164062 130.882812 218.164062 127.796875 C 218.164062 124.707031 216.535156 122.207031 214.53125 122.207031 C 212.523438 122.207031 210.898438 124.707031 210.898438 127.796875 C 210.898438 130.882812 212.523438 133.382812 214.53125 133.382812 Z M 195.382812 139.175781 C 195.25 138.894531 195.046875 138.679688 194.773438 138.535156 C 194.5 138.386719 194.210938 138.339844 193.902344 138.390625 C 193.597656 138.4375 193.335938 138.574219 193.121094 138.800781 C 192.90625 139.023438 192.78125 139.289062 192.746094 139.597656 L 191.792969 148.550781 C 191.738281 149.042969 191.597656 149.507812 191.371094 149.949219 C 191.144531 150.386719 190.847656 150.773438 190.476562 151.101562 C 190.109375 151.433594 189.691406 151.683594 189.230469 151.859375 C 188.769531 152.035156 188.289062 152.121094 187.792969 152.121094 C 183.84375 152.144531 179.925781 152.523438 176.042969 153.257812 C 175.730469 153.3125 175.453125 153.445312 175.207031 153.652344 C 174.964844 153.859375 174.792969 154.113281 174.6875 154.417969 C 174.582031 154.71875 174.5625 155.023438 174.625 155.339844 C 174.6875 155.652344 174.824219 155.925781 175.039062 156.164062 L 185.054688 167.320312 C 185.210938 167.496094 185.382812 167.65625 185.570312 167.796875 C 185.757812 167.933594 185.960938 168.054688 186.175781 168.148438 C 186.386719 168.246094 186.609375 168.320312 186.839844 168.371094 C 187.070312 168.417969 187.300781 168.445312 187.535156 168.445312 C 187.769531 168.445312 188.003906 168.417969 188.230469 168.371094 C 188.460938 168.320312 188.683594 168.246094 188.898438 168.148438 C 189.113281 168.054688 189.3125 167.933594 189.5 167.796875 C 189.691406 167.65625 189.863281 167.496094 190.015625 167.320312 L 200.214844 155.953125 C 200.488281 155.644531 200.714844 155.304688 200.890625 154.929688 C 201.066406 154.558594 201.1875 154.167969 201.25 153.757812 C 201.3125 153.351562 201.316406 152.941406 201.257812 152.535156 C 201.203125 152.125 201.089844 151.734375 200.917969 151.359375 Z M 195.382812 139.175781 " fill-opacity="1" fill-rule="nonzero"/></svg>