<svg xmlns="http://www.w3.org/2000/svg" xmlns:xlink="http://www.w3.org/1999/xlink" width="500" zoomAndPan="magnify" viewBox="0 0 375 374.999991" height="500" preserveAspectRatio="xMidYMid meet" version="1.0"><defs><clipPath id="f307d4b44f"><path d="M 16.078125 13.070312 L 358.828125 13.070312 L 358.828125 357 L 16.078125 357 Z M 16.078125 13.070312 " clip-rule="nonzero"/></clipPath></defs><g clip-path="url(#f307d4b44f)"><path fill="#ff5e64" d="M 358.824219 184.703125 C 358.851562 197.695312 357.410156 210.519531 354.507812 223.183594 C 351.601562 235.84375 347.304688 248.011719 341.617188 259.691406 C 341.535156 259.902344 341.429688 260.070312 341.34375 260.28125 C 341.195312 260.574219 341.027344 260.914062 340.882812 261.207031 C 335.398438 272.269531 328.777344 282.601562 321.019531 292.207031 C 319.398438 294.230469 317.734375 296.210938 316.007812 298.152344 C 315.753906 298.425781 315.480469 298.742188 315.226562 299.039062 C 313.773438 300.660156 312.300781 302.242188 310.761719 303.824219 L 310.636719 303.953125 C 309.5 305.132812 308.339844 306.3125 307.160156 307.472656 C 306.234375 308.378906 305.308594 309.246094 304.359375 310.128906 C 303.578125 310.910156 302.757812 311.628906 301.957031 312.363281 C 299.789062 314.347656 297.535156 316.222656 295.261719 318.121094 L 295.238281 318.121094 C 293.144531 319.820312 291.011719 321.46875 288.839844 323.0625 C 286.664062 324.660156 284.457031 326.207031 282.210938 327.699219 C 279.964844 329.191406 277.6875 330.628906 275.371094 332.011719 C 273.058594 333.398438 270.714844 334.726562 268.339844 336 C 265.960938 337.273438 263.558594 338.492188 261.125 339.652344 C 258.691406 340.8125 256.230469 341.914062 253.746094 342.957031 C 251.261719 344 248.753906 344.984375 246.21875 345.910156 C 243.6875 346.835938 241.136719 347.703125 238.5625 348.507812 C 235.992188 349.3125 233.402344 350.054688 230.792969 350.734375 C 228.1875 351.417969 225.5625 352.039062 222.925781 352.597656 C 220.289062 353.15625 217.640625 353.652344 214.980469 354.082031 C 212.320312 354.515625 209.652344 354.886719 206.972656 355.191406 C 204.296875 355.5 201.613281 355.742188 198.921875 355.921875 C 196.234375 356.101562 193.542969 356.21875 190.847656 356.273438 C 188.152344 356.324219 185.457031 356.3125 182.765625 356.238281 C 180.070312 356.164062 177.378906 356.027344 174.691406 355.824219 C 172.003906 355.621094 169.324219 355.359375 166.648438 355.027344 C 163.972656 354.699219 161.304688 354.308594 158.648438 353.855469 C 155.992188 353.398438 153.347656 352.882812 150.714844 352.300781 C 148.082031 351.722656 145.464844 351.082031 142.863281 350.378906 C 140.261719 349.675781 137.679688 348.910156 135.113281 348.085938 C 132.546875 347.257812 130 346.371094 127.476562 345.425781 C 124.953125 344.480469 122.453125 343.476562 119.976562 342.414062 C 117.5 341.347656 115.046875 340.226562 112.625 339.046875 C 110.199219 337.867188 107.804688 336.628906 105.441406 335.335938 C 103.074219 334.042969 100.742188 332.695312 98.4375 331.292969 C 96.136719 329.886719 93.871094 328.429688 91.636719 326.921875 C 89.402344 325.410156 87.207031 323.847656 85.046875 322.234375 C 82.886719 320.617188 80.765625 318.953125 78.6875 317.238281 C 76.605469 315.523438 74.566406 313.761719 72.566406 311.949219 C 70.570312 310.140625 68.617188 308.28125 66.707031 306.378906 C 64.796875 304.472656 62.929688 302.527344 61.113281 300.535156 C 60.859375 300.261719 60.628906 300.007812 60.375 299.734375 C 59.828125 299.164062 59.300781 298.554688 58.773438 297.960938 C 58.332031 297.433594 57.867188 296.929688 57.425781 296.402344 C 52.292969 290.425781 47.59375 284.117188 43.335938 277.488281 C 43.253906 277.339844 43.160156 277.199219 43.0625 277.066406 C 43.019531 277.003906 42.976562 276.9375 42.9375 276.875 C 41.757812 275.039062 40.617188 273.144531 39.523438 271.265625 C 35.703125 264.730469 32.332031 257.972656 29.40625 250.988281 C 26.484375 244.003906 24.035156 236.859375 22.058594 229.546875 C 20.085938 222.238281 18.605469 214.832031 17.613281 207.324219 C 16.625 199.816406 16.132812 192.277344 16.144531 184.703125 C 16.144531 89.980469 92.851562 13.183594 187.484375 13.183594 C 276.179688 13.183594 349.136719 80.660156 357.941406 167.136719 C 358.535156 172.980469 358.828125 178.832031 358.824219 184.703125 Z M 358.824219 184.703125 " fill-opacity="1" fill-rule="nonzero"/></g><path fill="#e7dcc1" d="M 321.019531 292.207031 C 319.398438 294.230469 317.734375 296.210938 316.007812 298.152344 C 315.753906 298.425781 315.480469 298.742188 315.226562 299.039062 C 313.773438 300.660156 312.300781 302.242188 310.761719 303.824219 L 310.636719 303.953125 C 309.5 305.132812 308.339844 306.3125 307.160156 307.472656 C 306.234375 308.378906 305.308594 309.246094 304.359375 310.128906 C 303.578125 310.910156 302.757812 311.628906 301.957031 312.363281 C 299.789062 314.347656 297.535156 316.222656 295.261719 318.121094 L 295.238281 318.121094 C 293.144531 319.820312 291.011719 321.46875 288.839844 323.0625 C 286.664062 324.660156 284.457031 326.207031 282.210938 327.699219 C 279.964844 329.191406 277.6875 330.628906 275.371094 332.011719 C 273.058594 333.398438 270.714844 334.726562 268.339844 336 C 265.960938 337.273438 263.558594 338.492188 261.125 339.652344 C 258.691406 340.8125 256.230469 341.914062 253.746094 342.957031 C 251.261719 344 248.753906 344.984375 246.21875 345.910156 C 243.6875 346.835938 241.136719 347.703125 238.5625 348.507812 C 235.992188 349.3125 233.402344 350.054688 230.792969 350.734375 C 228.1875 351.417969 225.5625 352.039062 222.925781 352.597656 C 220.289062 353.15625 217.640625 353.652344 214.980469 354.082031 C 212.320312 354.515625 209.652344 354.886719 206.972656 355.191406 C 204.296875 355.5 201.613281 355.742188 198.921875 355.921875 C 196.234375 356.101562 193.542969 356.21875 190.847656 356.273438 C 188.152344 356.324219 185.457031 356.3125 182.765625 356.238281 C 180.070312 356.164062 177.378906 356.027344 174.691406 355.824219 C 172.003906 355.621094 169.324219 355.359375 166.648438 355.027344 C 163.972656 354.699219 161.304688 354.308594 158.648438 353.855469 C 155.992188 353.398438 153.347656 352.882812 150.714844 352.300781 C 148.082031 351.722656 145.464844 351.082031 142.863281 350.378906 C 140.261719 349.675781 137.679688 348.910156 135.113281 348.085938 C 132.546875 347.257812 130 346.371094 127.476562 345.425781 C 124.953125 344.480469 122.453125 343.476562 119.976562 342.414062 C 117.5 341.347656 115.046875 340.226562 112.625 339.046875 C 110.199219 337.867188 107.804688 336.628906 105.441406 335.335938 C 103.074219 334.042969 100.742188 332.695312 98.4375 331.292969 C 96.136719 329.886719 93.871094 328.429688 91.636719 326.921875 C 89.402344 325.410156 87.207031 323.847656 85.046875 322.234375 C 82.886719 320.617188 80.765625 318.953125 78.6875 317.238281 C 76.605469 315.523438 74.566406 313.761719 72.566406 311.949219 C 70.570312 310.140625 68.617188 308.28125 66.707031 306.378906 C 64.796875 304.472656 62.929688 302.527344 61.113281 300.535156 C 60.859375 300.261719 60.628906 300.007812 60.375 299.734375 C 59.828125 299.164062 59.300781 298.554688 58.773438 297.960938 C 92.09375 268.925781 140.074219 250.707031 193.382812 250.707031 C 243.089844 250.707031 288.164062 266.542969 321.019531 292.207031 Z M 257.066406 152.496094 L 249.292969 76.65625 C 248.902344 74.105469 248.242188 71.621094 247.320312 69.210938 C 246.394531 66.800781 245.222656 64.515625 243.808594 62.355469 C 242.394531 60.195312 240.761719 58.210938 238.921875 56.40625 C 237.078125 54.597656 235.066406 53.007812 232.878906 51.632812 C 204.277344 33.722656 171.863281 32.972656 141.703125 51.386719 C 139.421875 52.78125 137.320312 54.410156 135.398438 56.273438 C 133.476562 58.140625 131.785156 60.191406 130.320312 62.433594 C 128.855469 64.675781 127.65625 67.050781 126.722656 69.558594 C 125.785156 72.066406 125.136719 74.648438 124.773438 77.300781 L 117.917969 153.023438 Z M 257.066406 152.496094 " fill-opacity="1" fill-rule="nonzero"/><path fill="#b84f43" d="M 232.933594 208.03125 L 232.933594 267.597656 L 144.839844 267.597656 L 144.839844 211.496094 C 143.578125 210.421875 142.359375 209.304688 141.179688 208.136719 C 140.003906 206.972656 138.875 205.761719 137.789062 204.511719 C 136.703125 203.257812 135.667969 201.96875 134.679688 200.636719 C 133.691406 199.304688 132.757812 197.9375 131.875 196.535156 C 130.992188 195.132812 130.164062 193.699219 129.386719 192.234375 C 128.613281 190.769531 127.898438 189.277344 127.234375 187.757812 C 126.574219 186.238281 125.972656 184.695312 125.429688 183.128906 C 124.886719 181.5625 124.402344 179.976562 123.980469 178.375 C 123.558594 176.773438 123.195312 175.15625 122.894531 173.527344 C 122.59375 171.894531 122.355469 170.257812 122.179688 168.609375 C 122.007812 166.960938 121.894531 165.308594 121.84375 163.652344 C 121.792969 161.992188 121.804688 160.335938 121.882812 158.679688 C 121.957031 157.023438 122.097656 155.375 122.296875 153.730469 C 122.5 152.082031 122.761719 150.449219 123.089844 148.824219 C 123.414062 147.199219 123.800781 145.585938 124.25 143.992188 C 124.699219 142.394531 125.207031 140.820312 125.773438 139.261719 L 128.699219 129.5 C 129.167969 127.941406 129.695312 126.40625 130.285156 124.894531 C 130.875 123.378906 131.523438 121.890625 132.230469 120.429688 C 132.9375 118.96875 133.703125 117.535156 134.527344 116.136719 C 135.347656 114.734375 136.226562 113.371094 137.15625 112.039062 C 138.089844 110.710938 139.074219 109.417969 140.105469 108.167969 C 141.140625 106.914062 142.226562 105.707031 143.355469 104.542969 C 144.488281 103.375 145.664062 102.257812 146.882812 101.1875 C 148.105469 100.117188 149.367188 99.097656 150.667969 98.125 C 151.96875 97.15625 153.308594 96.242188 154.683594 95.378906 C 156.058594 94.515625 157.464844 93.707031 158.90625 92.960938 C 160.34375 92.210938 161.8125 91.519531 163.308594 90.886719 C 164.800781 90.253906 166.320312 89.679688 167.859375 89.171875 C 169.402344 88.660156 170.957031 88.210938 172.535156 87.824219 C 174.113281 87.4375 175.699219 87.117188 177.304688 86.855469 C 178.90625 86.597656 180.515625 86.402344 182.132812 86.273438 C 183.75 86.144531 185.371094 86.078125 186.992188 86.078125 C 188.617188 86.078125 190.234375 86.140625 191.855469 86.273438 C 193.472656 86.402344 195.082031 86.59375 196.683594 86.851562 C 198.285156 87.113281 199.875 87.433594 201.453125 87.820312 C 203.027344 88.203125 204.585938 88.652344 206.128906 89.164062 C 207.667969 89.671875 209.1875 90.246094 210.679688 90.875 C 212.175781 91.507812 213.644531 92.199219 215.082031 92.949219 C 216.523438 93.699219 217.929688 94.503906 219.304688 95.367188 C 220.683594 96.226562 222.019531 97.144531 223.324219 98.113281 C 224.625 99.082031 225.886719 100.101562 227.109375 101.171875 C 228.328125 102.242188 229.503906 103.359375 230.636719 104.527344 C 231.769531 105.691406 232.851562 106.898438 233.886719 108.148438 C 234.921875 109.402344 235.90625 110.691406 236.835938 112.019531 C 237.769531 113.351562 238.648438 114.714844 239.46875 116.117188 C 240.292969 117.515625 241.058594 118.949219 241.769531 120.410156 C 242.476562 121.871094 243.125 123.359375 243.714844 124.871094 C 244.304688 126.386719 244.832031 127.921875 245.300781 129.476562 L 248.398438 139.746094 C 249.433594 142.652344 250.257812 145.613281 250.871094 148.636719 C 251.488281 151.660156 251.886719 154.707031 252.070312 157.789062 C 252.253906 160.867188 252.222656 163.941406 251.972656 167.015625 C 251.71875 170.089844 251.253906 173.128906 250.574219 176.136719 C 249.890625 179.144531 249.003906 182.089844 247.90625 184.972656 C 246.808594 187.855469 245.511719 190.644531 244.019531 193.339844 C 242.527344 196.039062 240.855469 198.617188 238.996094 201.078125 C 237.140625 203.539062 235.117188 205.855469 232.933594 208.03125 Z M 232.933594 208.03125 " fill-opacity="1" fill-rule="nonzero"/><path fill="#242156" d="M 211.683594 134.414062 C 211.683594 130.777344 213.335938 127.824219 215.371094 127.824219 C 217.40625 127.824219 219.054688 130.777344 219.054688 134.414062 C 219.054688 138.054688 217.40625 141.003906 215.371094 141.003906 C 213.335938 141.003906 211.683594 138.054688 211.683594 134.414062 Z M 162.117188 141.003906 C 164.152344 141.003906 165.804688 138.054688 165.804688 134.414062 C 165.804688 130.777344 164.152344 127.824219 162.117188 127.824219 C 160.082031 127.824219 158.429688 130.777344 158.429688 134.414062 C 158.429688 138.054688 160.082031 141.003906 162.117188 141.003906 Z M 192.988281 126.058594 C 192.917969 125.796875 192.804688 125.558594 192.648438 125.339844 C 192.488281 125.121094 192.296875 124.9375 192.074219 124.789062 C 191.847656 124.640625 191.601562 124.539062 191.339844 124.480469 C 191.078125 124.421875 190.8125 124.414062 190.546875 124.457031 C 190.277344 124.496094 190.027344 124.582031 189.792969 124.714844 C 189.558594 124.847656 189.359375 125.019531 189.1875 125.226562 C 189.015625 125.4375 188.886719 125.667969 188.800781 125.921875 C 188.714844 126.179688 188.679688 126.441406 188.691406 126.710938 L 190.34375 163.347656 C 190.355469 163.632812 190.339844 163.917969 190.296875 164.199219 C 190.25 164.480469 190.179688 164.757812 190.078125 165.023438 C 189.980469 165.292969 189.851562 165.546875 189.703125 165.789062 C 189.550781 166.03125 189.375 166.253906 189.179688 166.460938 C 188.980469 166.667969 188.765625 166.851562 188.53125 167.015625 C 188.296875 167.175781 188.046875 167.316406 187.785156 167.425781 C 187.523438 167.539062 187.25 167.625 186.972656 167.683594 C 186.691406 167.738281 186.410156 167.769531 186.125 167.769531 L 175.503906 167.769531 C 175.289062 167.769531 175.089844 167.832031 174.914062 167.957031 C 174.734375 168.078125 174.605469 168.242188 174.527344 168.441406 C 174.449219 168.644531 174.433594 168.851562 174.480469 169.0625 C 174.527344 169.273438 174.632812 169.453125 174.789062 169.601562 L 185.785156 180.039062 C 186.136719 180.375 186.539062 180.632812 186.988281 180.8125 C 187.441406 180.996094 187.910156 181.085938 188.394531 181.085938 C 188.882812 181.085938 189.351562 180.996094 189.800781 180.8125 C 190.253906 180.632812 190.65625 180.375 191.007812 180.039062 L 201.730469 169.847656 C 202.402344 169.207031 202.867188 168.4375 203.125 167.542969 C 203.378906 166.644531 203.386719 165.746094 203.152344 164.84375 Z M 225.753906 200.5 C 225.753906 201.707031 225.699219 202.914062 225.582031 204.117188 C 225.464844 205.320312 225.285156 206.515625 225.050781 207.703125 C 224.816406 208.890625 224.527344 210.0625 224.175781 211.21875 C 223.828125 212.378906 223.421875 213.515625 222.960938 214.632812 C 222.5 215.75 221.984375 216.84375 221.414062 217.910156 C 220.847656 218.976562 220.226562 220.011719 219.554688 221.019531 C 218.886719 222.027344 218.167969 222.996094 217.402344 223.933594 C 216.636719 224.867188 215.824219 225.761719 214.972656 226.617188 C 214.117188 227.472656 213.226562 228.285156 212.292969 229.054688 C 211.359375 229.820312 210.390625 230.542969 209.386719 231.214844 C 208.382812 231.886719 207.347656 232.507812 206.28125 233.078125 C 205.214844 233.648438 204.125 234.164062 203.007812 234.628906 C 201.894531 235.089844 200.757812 235.5 199.601562 235.851562 C 198.445312 236.199219 197.277344 236.496094 196.089844 236.730469 C 194.90625 236.96875 193.710938 237.144531 192.511719 237.261719 C 191.308594 237.382812 190.101562 237.441406 188.894531 237.441406 C 187.6875 237.441406 186.480469 237.382812 185.28125 237.261719 C 184.078125 237.144531 182.882812 236.96875 181.699219 236.730469 C 180.515625 236.496094 179.34375 236.199219 178.1875 235.851562 C 177.03125 235.5 175.898438 235.089844 174.78125 234.628906 C 173.664062 234.164062 172.574219 233.648438 171.507812 233.078125 C 170.445312 232.507812 169.410156 231.886719 168.40625 231.214844 C 167.402344 230.542969 166.433594 229.820312 165.5 229.054688 C 164.566406 228.285156 163.671875 227.472656 162.816406 226.617188 C 161.964844 225.761719 161.152344 224.867188 160.386719 223.933594 C 159.621094 222.996094 158.90625 222.027344 158.234375 221.019531 C 157.5625 220.011719 156.945312 218.976562 156.375 217.910156 C 155.808594 216.84375 155.292969 215.75 154.832031 214.632812 C 154.367188 213.515625 153.964844 212.378906 153.613281 211.21875 C 153.265625 210.0625 152.972656 208.890625 152.738281 207.703125 C 152.503906 206.515625 152.328125 205.320312 152.210938 204.117188 C 152.09375 202.914062 152.035156 201.707031 152.035156 200.5 C 152.039062 199.730469 152.15625 198.980469 152.390625 198.25 C 152.625 197.519531 152.964844 196.839844 153.410156 196.214844 C 153.855469 195.589844 154.386719 195.046875 155 194.585938 C 155.613281 194.125 156.28125 193.769531 157.007812 193.519531 L 186.492188 183.398438 C 188.09375 182.855469 189.695312 182.855469 191.296875 183.398438 L 220.785156 193.519531 C 221.507812 193.769531 222.175781 194.125 222.792969 194.585938 C 223.40625 195.046875 223.933594 195.589844 224.378906 196.214844 C 224.824219 196.839844 225.164062 197.519531 225.398438 198.25 C 225.632812 198.980469 225.753906 199.730469 225.753906 200.5 Z M 215.371094 200.539062 C 215.355469 200.015625 215.257812 199.511719 215.082031 199.019531 C 214.90625 198.527344 214.65625 198.074219 214.332031 197.660156 C 214.011719 197.25 213.632812 196.898438 213.199219 196.609375 C 212.761719 196.320312 212.292969 196.105469 211.789062 195.964844 L 190.621094 189.34375 C 189.472656 188.976562 188.320312 188.976562 187.167969 189.34375 L 166 195.964844 C 165.496094 196.105469 165.027344 196.320312 164.59375 196.609375 C 164.15625 196.898438 163.78125 197.25 163.457031 197.660156 C 163.136719 198.074219 162.886719 198.527344 162.707031 199.019531 C 162.53125 199.511719 162.433594 200.015625 162.421875 200.539062 C 162.421875 203.894531 164.0625 207.015625 166.546875 209.820312 C 177.523438 222.238281 200.269531 222.238281 211.242188 209.820312 C 213.726562 207.015625 215.371094 203.894531 215.371094 200.539062 Z M 110.160156 146.351562 L 109.878906 146.777344 C 109.371094 147.554688 108.9375 148.367188 108.585938 149.222656 C 108.230469 150.082031 107.957031 150.960938 107.769531 151.871094 C 107.578125 152.777344 107.476562 153.695312 107.460938 154.621094 C 107.441406 155.546875 107.511719 156.46875 107.667969 157.378906 C 107.824219 158.292969 108.066406 159.183594 108.390625 160.054688 C 108.710938 160.921875 109.113281 161.753906 109.59375 162.542969 C 110.074219 163.335938 110.625 164.078125 111.242188 164.765625 C 111.863281 165.457031 112.539062 166.082031 113.277344 166.644531 L 122.976562 174.035156 L 135.339844 115.03125 L 123.6875 117.636719 C 122.824219 117.832031 121.980469 118.101562 121.164062 118.445312 C 120.347656 118.792969 119.566406 119.207031 118.824219 119.695312 C 118.082031 120.179688 117.390625 120.730469 116.746094 121.339844 C 116.101562 121.953125 115.519531 122.617188 114.996094 123.332031 C 114.472656 124.050781 114.015625 124.808594 113.628906 125.609375 C 113.242188 126.40625 112.929688 127.234375 112.691406 128.089844 C 112.453125 128.945312 112.292969 129.816406 112.210938 130.699219 C 112.128906 131.582031 112.128906 132.46875 112.207031 133.351562 L 112.523438 136.945312 C 112.667969 138.601562 112.539062 140.234375 112.132812 141.847656 C 111.726562 143.460938 111.070312 144.960938 110.160156 146.351562 Z M 261.644531 136.945312 L 261.960938 133.351562 C 262.039062 132.46875 262.039062 131.582031 261.957031 130.699219 C 261.875 129.816406 261.714844 128.945312 261.476562 128.089844 C 261.238281 127.234375 260.925781 126.40625 260.539062 125.609375 C 260.152344 124.808594 259.695312 124.050781 259.171875 123.332031 C 258.648438 122.617188 258.066406 121.953125 257.421875 121.339844 C 256.777344 120.730469 256.085938 120.179688 255.34375 119.695312 C 254.601562 119.207031 253.820312 118.792969 253.003906 118.445312 C 252.1875 118.101562 251.34375 117.832031 250.480469 117.636719 L 238.828125 115.03125 L 251.191406 174.035156 L 260.890625 166.644531 C 261.628906 166.082031 262.304688 165.457031 262.925781 164.765625 C 263.542969 164.078125 264.09375 163.335938 264.574219 162.542969 C 265.054688 161.753906 265.453125 160.921875 265.777344 160.054688 C 266.101562 159.183594 266.34375 158.292969 266.5 157.378906 C 266.65625 156.46875 266.722656 155.546875 266.707031 154.621094 C 266.691406 153.695312 266.589844 152.777344 266.398438 151.871094 C 266.210938 150.960938 265.9375 150.082031 265.582031 149.222656 C 265.230469 148.367188 264.796875 147.554688 264.289062 146.777344 L 264.007812 146.351562 C 263.097656 144.960938 262.4375 143.460938 262.035156 141.847656 C 261.628906 140.234375 261.5 138.601562 261.644531 136.945312 Z M 135.335938 237.421875 L 135.335938 237.402344 L 135.3125 237.402344 Z M 135.335938 237.402344 L 144.835938 242.714844 L 144.835938 237.402344 Z M 232.933594 237.410156 L 232.933594 242.722656 L 242.433594 237.410156 Z M 232.933594 237.410156 " fill-opacity="1" fill-rule="nonzero"/><path fill="#18b9cd" d="M 242.457031 237.402344 L 242.457031 263.335938 L 188.898438 293.28125 L 135.335938 263.335938 L 135.335938 237.402344 L 188.894531 267.34375 Z M 188.894531 45.742188 L 179.144531 61.820312 L 188.894531 77.898438 L 198.628906 61.820312 Z M 170.886719 61.808594 L 161.136719 77.898438 L 167.960938 89.136719 C 170.246094 88.375 172.570312 87.761719 174.933594 87.304688 L 180.617188 77.898438 Z M 206.273438 61.808594 L 196.519531 77.898438 L 202.753906 88.148438 C 204.746094 88.6875 206.703125 89.328125 208.632812 90.066406 L 216.003906 77.898438 Z M 150.449219 50.277344 L 140.699219 66.355469 L 150.449219 82.433594 L 160.183594 66.355469 Z M 137.074219 72.050781 L 127.324219 88.128906 L 137.074219 104.207031 L 146.808594 88.128906 Z M 225.761719 51.332031 L 216.011719 67.410156 L 225.761719 83.488281 L 235.496094 67.410156 Z M 238.835938 74.789062 L 229.085938 90.867188 L 238.835938 106.949219 L 248.570312 90.867188 Z M 188.886719 318.460938 C 189.371094 318.460938 189.851562 318.410156 190.324219 318.316406 C 190.800781 318.222656 191.261719 318.082031 191.707031 317.898438 C 192.15625 317.710938 192.582031 317.484375 192.984375 317.214844 C 193.386719 316.945312 193.757812 316.640625 194.101562 316.296875 C 194.441406 315.953125 194.746094 315.582031 195.015625 315.179688 C 195.285156 314.777344 195.511719 314.351562 195.699219 313.902344 C 195.882812 313.457031 196.023438 312.992188 196.117188 312.519531 C 196.210938 312.042969 196.257812 311.5625 196.257812 311.078125 C 196.257812 310.59375 196.210938 310.113281 196.117188 309.640625 C 196.023438 309.164062 195.882812 308.703125 195.699219 308.253906 C 195.511719 307.804688 195.285156 307.382812 195.015625 306.976562 C 194.746094 306.574219 194.441406 306.203125 194.101562 305.859375 C 193.757812 305.515625 193.386719 305.210938 192.984375 304.941406 C 192.582031 304.671875 192.15625 304.445312 191.707031 304.261719 C 191.261719 304.074219 190.800781 303.933594 190.324219 303.839844 C 189.851562 303.746094 189.371094 303.699219 188.886719 303.699219 C 188.402344 303.699219 187.921875 303.746094 187.449219 303.839844 C 186.972656 303.933594 186.511719 304.074219 186.066406 304.261719 C 185.617188 304.445312 185.195312 304.671875 184.792969 304.941406 C 184.390625 305.210938 184.015625 305.515625 183.675781 305.859375 C 183.332031 306.203125 183.027344 306.574219 182.757812 306.976562 C 182.488281 307.382812 182.261719 307.804688 182.078125 308.253906 C 181.890625 308.703125 181.75 309.164062 181.65625 309.640625 C 181.5625 310.113281 181.515625 310.59375 181.515625 311.078125 C 181.515625 311.5625 181.5625 312.042969 181.65625 312.519531 C 181.75 312.992188 181.890625 313.457031 182.078125 313.902344 C 182.261719 314.351562 182.488281 314.777344 182.757812 315.179688 C 183.027344 315.582031 183.332031 315.953125 183.675781 316.296875 C 184.015625 316.640625 184.390625 316.945312 184.792969 317.214844 C 185.195312 317.484375 185.617188 317.710938 186.066406 317.898438 C 186.511719 318.082031 186.972656 318.222656 187.449219 318.316406 C 187.921875 318.410156 188.402344 318.460938 188.886719 318.460938 Z M 188.886719 350.523438 C 189.371094 350.523438 189.851562 350.476562 190.324219 350.382812 C 190.800781 350.289062 191.261719 350.148438 191.707031 349.960938 C 192.15625 349.777344 192.582031 349.550781 192.984375 349.28125 C 193.386719 349.011719 193.757812 348.703125 194.101562 348.363281 C 194.441406 348.019531 194.746094 347.648438 195.015625 347.242188 C 195.285156 346.839844 195.511719 346.414062 195.699219 345.96875 C 195.882812 345.519531 196.023438 345.058594 196.117188 344.582031 C 196.210938 344.109375 196.257812 343.628906 196.257812 343.144531 C 196.257812 342.660156 196.210938 342.179688 196.117188 341.703125 C 196.023438 341.226562 195.882812 340.765625 195.699219 340.320312 C 195.511719 339.871094 195.285156 339.445312 195.015625 339.042969 C 194.746094 338.640625 194.441406 338.265625 194.101562 337.925781 C 193.757812 337.582031 193.386719 337.277344 192.984375 337.007812 C 192.582031 336.738281 192.15625 336.511719 191.707031 336.324219 C 191.261719 336.140625 190.800781 336 190.324219 335.90625 C 189.851562 335.808594 189.371094 335.761719 188.886719 335.761719 C 188.402344 335.761719 187.921875 335.808594 187.449219 335.90625 C 186.972656 336 186.511719 336.140625 186.066406 336.324219 C 185.617188 336.511719 185.195312 336.738281 184.792969 337.007812 C 184.390625 337.277344 184.015625 337.582031 183.675781 337.925781 C 183.332031 338.265625 183.027344 338.640625 182.757812 339.042969 C 182.488281 339.445312 182.261719 339.871094 182.078125 340.320312 C 181.890625 340.765625 181.75 341.226562 181.65625 341.703125 C 181.5625 342.179688 181.515625 342.660156 181.515625 343.144531 C 181.515625 343.628906 181.5625 344.109375 181.65625 344.582031 C 181.75 345.058594 181.890625 345.519531 182.078125 345.96875 C 182.261719 346.414062 182.488281 346.839844 182.757812 347.242188 C 183.027344 347.648438 183.332031 348.019531 183.675781 348.363281 C 184.015625 348.703125 184.390625 349.011719 184.792969 349.28125 C 185.195312 349.550781 185.617188 349.777344 186.066406 349.960938 C 186.511719 350.148438 186.972656 350.289062 187.449219 350.382812 C 187.921875 350.476562 188.402344 350.523438 188.886719 350.523438 Z M 188.886719 350.523438 " fill-opacity="1" fill-rule="nonzero"/></svg>