<svg xmlns="http://www.w3.org/2000/svg" xmlns:xlink="http://www.w3.org/1999/xlink" width="500" zoomAndPan="magnify" viewBox="0 0 375 374.999991" height="500" preserveAspectRatio="xMidYMid meet" version="1.0"><defs><clipPath id="cca92f5608"><path d="M 0 0 L 368.25 0 L 368.25 368.25 L 0 368.25 Z M 0 0 " clip-rule="nonzero"/></clipPath><clipPath id="03c7cffab3"><path d="M 0 139 L 368.25 139 L 368.25 368.25 L 0 368.25 Z M 0 139 " clip-rule="nonzero"/></clipPath><clipPath id="7bec2685be"><path d="M 52 132 L 368.25 132 L 368.25 368.25 L 52 368.25 Z M 52 132 " clip-rule="nonzero"/></clipPath><clipPath id="2ff3e01488"><path d="M 195.328125 324.175781 L 199.585938 324.175781 L 199.585938 327.824219 L 195.328125 327.824219 Z M 195.328125 324.175781 " clip-rule="nonzero"/></clipPath><clipPath id="5965f4e4b4"><path d="M 199.574219 325.5 C 197.699219 328.5 195.898438 327.898438 195.523438 327.300781 C 195.148438 326.699219 195.449219 324.824219 196.050781 324.375 C 196.648438 323.925781 199.050781 324.523438 199.050781 324.523438 " clip-rule="nonzero"/></clipPath><clipPath id="74bf0ae672"><path d="M 186.625 297.101562 L 269.726562 297.101562 L 269.726562 349.324219 L 186.625 349.324219 Z M 186.625 297.101562 " clip-rule="nonzero"/></clipPath><clipPath id="029516d336"><path d="M 186.675781 346.800781 C 187.800781 343.273438 189.449219 341.550781 191.550781 340.050781 C 195.074219 337.425781 203.773438 334.425781 207.523438 332.023438 C 209.773438 330.601562 210.300781 329.476562 212.625 328.050781 C 216.449219 325.5 227.023438 321.675781 229.351562 319.273438 C 230.25 318.449219 230.023438 317.550781 230.550781 316.875 C 231.148438 316.199219 231.75 315.898438 232.800781 315.148438 C 234.976562 313.574219 239.625 310.425781 243.523438 308.101562 C 247.949219 305.550781 253.574219 302.550781 257.851562 300.601562 C 261.148438 299.101562 264.976562 297.226562 266.925781 297.148438 C 267.898438 297.148438 268.574219 297.375 269.023438 297.824219 C 269.398438 298.273438 269.699219 299.324219 269.550781 299.925781 C 269.476562 300.523438 268.800781 301.351562 268.199219 301.574219 C 267.601562 301.800781 266.550781 301.726562 266.023438 301.351562 C 265.5 300.976562 265.050781 300.074219 265.050781 299.476562 C 265.050781 298.800781 265.574219 297.898438 266.023438 297.523438 C 266.398438 297.226562 266.925781 297.074219 267.449219 297.148438 C 268.050781 297.226562 268.949219 297.75 269.324219 298.273438 C 269.625 298.648438 269.699219 299.175781 269.625 299.699219 C 269.476562 300.226562 269.175781 300.898438 268.425781 301.5 C 266.925781 302.625 263.324219 303.074219 259.949219 304.574219 C 254.699219 306.976562 245.550781 311.699219 240.375 315.375 C 236.550781 318.148438 234.75 321.300781 231.074219 323.851562 C 226.800781 326.773438 219.523438 329.175781 215.925781 331.5 C 213.601562 332.925781 213 334.125 210.675781 335.550781 C 206.925781 337.949219 197.925781 341.550781 194.625 343.5 C 193.050781 344.398438 191.925781 344.925781 191.398438 345.75 C 190.949219 346.5 191.324219 347.476562 191.023438 348.074219 C 190.726562 348.523438 190.425781 349.050781 189.898438 349.199219 C 189.226562 349.425781 187.875 349.273438 187.351562 348.824219 C 186.824219 348.375 186.675781 346.800781 186.675781 346.800781 " clip-rule="nonzero"/></clipPath></defs><g clip-path="url(#cca92f5608)"><path fill="#fcd996" d="M 184.125 0 C 82.4375 0 0 82.445312 0 184.117188 C 0 285.8125 82.4375 368.25 184.125 368.25 C 285.8125 368.25 368.25 285.8125 368.25 184.117188 C 368.25 82.4375 285.820312 0 184.125 0 Z M 184.125 0 " fill-opacity="1" fill-rule="evenodd"/></g><path fill="#009933" d="M 163.34375 121.679688 C 160.246094 121.679688 157.257812 122.128906 154.417969 122.960938 C 151.289062 95.019531 127.597656 73.300781 98.816406 73.300781 C 97.160156 73.300781 95.507812 73.363281 93.878906 73.507812 C 88.320312 60.550781 79.449219 49.34375 68.332031 40.976562 C 27.003906 74.4375 0.464844 125.429688 0.0195312 182.636719 C 6.453125 184.308594 13.210938 185.203125 20.175781 185.203125 C 36.089844 185.203125 50.921875 180.5625 63.394531 172.5625 C 73.042969 180.460938 85.375 185.203125 98.816406 185.203125 C 113.363281 185.203125 126.625 179.640625 136.574219 170.539062 C 142.21875 179.351562 152.097656 185.203125 163.34375 185.203125 C 180.882812 185.203125 195.109375 170.980469 195.109375 153.4375 C 195.109375 135.90625 180.882812 121.679688 163.34375 121.679688 Z M 163.34375 121.679688 " fill-opacity="1" fill-rule="evenodd"/><g clip-path="url(#03c7cffab3)"><path fill="#f7a12e" d="M 362.703125 139.113281 L 5.550781 139.113281 C 1.933594 153.519531 0.00390625 168.59375 0.00390625 184.128906 C 0.00390625 285.808594 82.441406 368.253906 184.128906 368.253906 C 285.824219 368.253906 368.253906 285.808594 368.253906 184.128906 C 368.253906 168.59375 366.324219 153.519531 362.707031 139.113281 Z M 362.703125 139.113281 " fill-opacity="1" fill-rule="evenodd"/></g><path fill="#541700" d="M 233.382812 180.722656 C 228.238281 164.457031 220.414062 147.824219 212.5 131.011719 C 202.035156 108.777344 191.378906 86.140625 189.207031 67.304688 C 186.695312 45.523438 198.515625 25.464844 244.75 10.222656 C 225.757812 3.609375 205.371094 0.00390625 184.128906 0.00390625 C 175.113281 0.00390625 166.253906 0.65625 157.589844 1.910156 C 138.714844 22.851562 134.105469 47.230469 137.101562 73.25 C 140.246094 100.546875 152.796875 127.195312 165.113281 153.371094 C 172.125 168.257812 179.050781 182.972656 183.335938 196.519531 C 187.855469 210.832031 187.035156 222.902344 182.609375 231.574219 L 182.585938 231.617188 L 182.5 231.574219 C 180.722656 235.074219 178.507812 237.941406 175.984375 240.085938 C 173.511719 242.199219 170.421875 243.863281 166.851562 244.996094 C 158.566406 247.613281 148.226562 246.660156 137.144531 240.996094 C 125.246094 234.917969 114.597656 225.140625 108.074219 214.585938 C 103.8125 207.6875 101.625 201.332031 103.035156 197.425781 C 107.960938 183.828125 100.941406 168.824219 87.347656 163.886719 C 73.746094 158.960938 58.730469 165.984375 53.800781 179.585938 C 46.457031 199.855469 51.285156 222.203125 63.5625 242.074219 C 74.875 260.382812 93.117188 277.230469 113.34375 287.558594 C 137.683594 299.984375 161.96875 301.582031 182.640625 295.039062 C 192.570312 291.902344 201.769531 286.746094 209.839844 279.875 C 217.867188 273.042969 224.480469 264.769531 229.265625 255.371094 L 229.191406 255.328125 C 239.59375 234.917969 242.304688 208.949219 233.382812 180.726562 Z M 233.382812 180.722656 " fill-opacity="1" fill-rule="evenodd"/><path fill="#2e0d00" d="M 233.382812 180.722656 C 228.238281 164.457031 220.414062 147.824219 212.5 131.011719 C 202.035156 108.777344 191.378906 86.140625 189.207031 67.304688 C 186.695312 45.523438 198.515625 25.464844 244.75 10.222656 C 233.363281 6.253906 221.464844 3.382812 209.191406 1.699219 C 150.066406 30.570312 178.710938 83.929688 204.257812 147.859375 C 221.199219 190.246094 241.933594 256.285156 184.757812 279.585938 C 111.917969 309.261719 61.863281 240.023438 71.714844 163.1875 C 63.714844 165.316406 56.84375 171.195312 53.800781 179.582031 C 46.457031 199.851562 51.28125 222.199219 63.5625 242.070312 C 74.875 260.378906 93.117188 277.226562 113.34375 287.554688 C 137.683594 299.980469 161.96875 301.578125 182.640625 295.03125 C 192.570312 291.898438 201.769531 286.742188 209.839844 279.871094 C 217.867188 273.039062 224.480469 264.765625 229.265625 255.367188 L 229.191406 255.324219 C 239.59375 234.914062 242.304688 208.945312 233.382812 180.71875 Z M 233.382812 180.722656 " fill-opacity="1" fill-rule="evenodd"/><path fill="#2e0d00" d="M 209.722656 133.972656 C 204.871094 121.152344 203.457031 107.882812 205.023438 95.164062 C 199.257812 93.730469 192.996094 93.972656 187.011719 96.234375 C 171.386719 102.152344 163.527344 119.617188 169.445312 135.238281 C 175.367188 150.863281 192.828125 158.722656 208.449219 152.808594 C 211.511719 151.636719 214.277344 150.035156 216.695312 148.09375 C 213.96875 143.695312 211.625 138.980469 209.722656 133.972656 Z M 209.722656 133.972656 " fill-opacity="1" fill-rule="evenodd"/><path fill="#541700" d="M 280.007812 26.902344 C 269.496094 26.539062 258.738281 28.203125 248.28125 32.167969 C 206.175781 48.117188 184.972656 95.195312 200.929688 137.296875 C 216.886719 179.402344 263.964844 200.613281 306.070312 184.648438 C 334.0625 174.042969 352.816406 149.660156 357.542969 122.136719 C 343.28125 82.234375 315.640625 48.683594 280 26.898438 Z M 280.007812 26.902344 " fill-opacity="1" fill-rule="evenodd"/><path fill="#f7a12e" d="M 350.140625 135.117188 C 345.613281 123.171875 336.546875 114.269531 325.644531 109.632812 C 329.808594 102.558594 330.851562 93.734375 327.710938 85.46875 C 322.226562 70.996094 306.042969 63.703125 291.570312 69.195312 C 279.0625 73.933594 271.921875 86.65625 273.753906 99.367188 C 266.699219 88.632812 252.917969 83.84375 240.40625 88.578125 C 225.933594 94.0625 218.648438 110.246094 224.132812 124.71875 C 227.265625 132.988281 233.890625 138.914062 241.6875 141.445312 C 236.601562 152.144531 235.714844 164.816406 240.242188 176.769531 C 240.976562 178.699219 241.832031 180.546875 242.789062 182.324219 C 262.011719 191.261719 284.675781 192.753906 306.074219 184.65625 C 327.464844 176.539062 343.453125 160.402344 351.914062 140.972656 C 351.46875 139.011719 350.871094 137.050781 350.140625 135.117188 Z M 350.140625 135.117188 " fill-opacity="1" fill-rule="evenodd"/><path fill="#2e0d00" d="M 249.628906 106.953125 C 244.65625 108.832031 242.152344 114.398438 244.035156 119.371094 C 245.921875 124.34375 251.484375 126.847656 256.457031 124.96875 C 261.4375 123.085938 263.9375 117.515625 262.050781 112.546875 C 260.167969 107.558594 254.601562 105.066406 249.628906 106.953125 Z M 309.253906 94.65625 C 307.367188 89.675781 301.8125 87.179688 296.835938 89.066406 C 291.863281 90.945312 289.355469 96.515625 291.238281 101.484375 C 293.125 106.457031 298.683594 108.960938 303.664062 107.074219 C 308.640625 105.195312 311.136719 99.628906 309.253906 94.65625 Z M 309.253906 94.65625 " fill-opacity="1" fill-rule="evenodd"/><path fill="#2e0d00" d="M 311.625 138.214844 C 310.417969 137.113281 308.539062 137.195312 307.4375 138.410156 C 303.355469 142.871094 298.675781 146.292969 293.253906 148.453125 C 287.804688 150.605469 281.542969 151.507812 274.335938 150.910156 C 272.695312 150.777344 271.257812 151.996094 271.125 153.632812 C 270.996094 155.261719 272.210938 156.703125 273.847656 156.832031 C 281.984375 157.503906 289.125 156.453125 295.417969 153.957031 C 301.738281 151.453125 307.148438 147.519531 311.808594 142.410156 C 312.910156 141.199219 312.832031 139.324219 311.625 138.214844 Z M 311.625 138.214844 " fill-opacity="1" fill-rule="nonzero"/><path fill="#2e0d00" d="M 263.804688 18.085938 C 262.675781 17.550781 261.539062 17.011719 260.402344 16.496094 C 259.472656 16.558594 258.558594 16.945312 257.859375 17.667969 C 254.582031 21.039062 252.03125 24.34375 250.492188 27.746094 C 250.210938 28.386719 249.953125 29.023438 249.746094 29.652344 C 248.417969 28.679688 246.964844 27.851562 245.382812 27.140625 C 241.117188 25.214844 235.945312 24.226562 230.035156 23.785156 C 227.890625 23.625 226.011719 25.230469 225.855469 27.386719 C 225.695312 29.53125 227.296875 31.402344 229.453125 31.558594 C 234.449219 31.945312 238.75 32.746094 242.164062 34.28125 C 245.195312 35.65625 247.519531 37.640625 248.964844 40.527344 C 249.933594 42.457031 252.265625 43.238281 254.203125 42.289062 C 256.265625 41.726562 257.503906 39.582031 256.941406 37.503906 C 256.363281 35.300781 256.65625 33.152344 257.640625 30.96875 C 258.789062 28.417969 260.8125 25.828125 263.449219 23.113281 C 264.800781 21.726562 264.910156 19.589844 263.804688 18.085938 Z M 263.804688 18.085938 " fill-opacity="1" fill-rule="nonzero"/><path fill="#f7a12e" d="M 200.523438 130.398438 C 198.113281 124.046875 197.410156 117.457031 198.195312 111.148438 C 195.328125 110.441406 192.234375 110.558594 189.257812 111.679688 C 181.511719 114.617188 177.613281 123.277344 180.550781 131.03125 C 183.484375 138.777344 192.148438 142.675781 199.898438 139.742188 C 201.417969 139.171875 202.78125 138.375 203.984375 137.402344 C 202.636719 135.230469 201.472656 132.890625 200.523438 130.398438 Z M 200.523438 130.398438 " fill-opacity="1" fill-rule="evenodd"/><g clip-path="url(#7bec2685be)"><path fill="#009933" d="M 360.863281 132.351562 C 346.5625 144.972656 334.050781 159.671875 323.8125 176.085938 C 319.898438 175.121094 315.90625 174.316406 311.839844 173.691406 C 241.550781 162.886719 175.5 207.050781 157.371094 274.128906 C 150.769531 271.050781 143.617188 268.835938 136.058594 267.671875 C 100.417969 262.195312 66.710938 281.609375 52.582031 312.933594 C 86 347.0625 132.585938 368.246094 184.125 368.246094 C 285.8125 368.246094 368.25 285.808594 368.25 184.125 C 368.25 166.148438 365.664062 148.78125 360.863281 132.351562 Z M 360.863281 132.351562 " fill-opacity="1" fill-rule="evenodd"/></g><g clip-path="url(#2ff3e01488)"><g clip-path="url(#5965f4e4b4)"><path fill="#009933" d="M 192.523438 321.375 L 202.65625 321.375 L 202.65625 331.199219 L 192.523438 331.199219 Z M 192.523438 321.375 " fill-opacity="1" fill-rule="nonzero"/></g></g><g clip-path="url(#74bf0ae672)"><g clip-path="url(#029516d336)"><path fill="#009933" d="M 183.675781 294.148438 L 272.679688 294.148438 L 272.679688 352.273438 L 183.675781 352.273438 Z M 183.675781 294.148438 " fill-opacity="1" fill-rule="nonzero"/></g></g></svg>