<svg xmlns="http://www.w3.org/2000/svg" xmlns:xlink="http://www.w3.org/1999/xlink" width="500" zoomAndPan="magnify" viewBox="0 0 375 374.999991" height="500" preserveAspectRatio="xMidYMid meet" version="1.0"><defs><clipPath id="7b417f967b"><path d="M 55 285 L 105.238281 285 L 105.238281 335.261719 L 55 335.261719 Z M 55 285 " clip-rule="nonzero"/></clipPath><clipPath id="3f536f7d97"><path d="M 101.773438 335.101562 C 69.601562 306.824219 57.976562 294.074219 55.800781 290.023438 C 55.199219 288.898438 54.898438 288.300781 55.125 287.550781 C 55.351562 286.875 56.550781 286.050781 57.226562 285.898438 C 57.75 285.824219 58.351562 286.050781 58.800781 286.425781 C 59.175781 286.726562 59.175781 287.398438 59.625 287.773438 C 60.449219 288.375 61.726562 288.148438 63.449219 288.898438 C 67.574219 290.851562 81.75 298.800781 83.773438 301.875 C 84.449219 302.925781 84.523438 303.824219 84.300781 304.5 C 84.074219 305.101562 83.324219 305.773438 82.574219 305.851562 C 81.601562 306 80.175781 305.023438 78.898438 304.273438 C 77.175781 303.226562 75 301.425781 73.425781 299.699219 C 71.851562 297.976562 70.425781 295.949219 69.375 293.773438 C 68.324219 291.601562 66.898438 288.148438 67.273438 286.726562 C 67.5 285.898438 68.324219 285.300781 69 285.148438 C 69.601562 285 70.648438 285.300781 71.175781 285.675781 C 71.625 285.976562 71.925781 286.5 72 287.023438 C 72.074219 287.625 71.851562 288.675781 71.324219 289.199219 C 70.875 289.648438 69.824219 290.023438 69.226562 289.875 C 68.550781 289.800781 67.648438 289.125 67.351562 288.523438 C 67.125 287.925781 67.199219 286.800781 67.5 286.199219 C 67.726562 285.75 68.175781 285.375 68.699219 285.226562 C 69.449219 285.074219 70.800781 285.300781 71.550781 286.050781 C 72.75 287.175781 73.050781 290.925781 74.023438 292.726562 C 74.773438 294.074219 75.375 294.824219 76.574219 296.023438 C 78.375 297.898438 83.25 300.601562 84.148438 302.324219 C 84.601562 303.148438 84.523438 303.898438 84.300781 304.5 C 84 305.101562 83.175781 305.699219 82.574219 305.851562 C 82.050781 306 81.75 305.925781 80.925781 305.550781 C 77.398438 304.199219 56.101562 292.125 55.125 288.675781 C 54.824219 287.699219 55.648438 286.726562 56.175781 286.273438 C 56.550781 285.898438 57.226562 285.898438 57.75 285.976562 C 58.273438 286.050781 58.5 286.199219 59.175781 286.800781 C 61.800781 289.050781 68.925781 300.601562 75.601562 307.5 C 83.550781 315.75 102.976562 327.898438 104.773438 332.324219 C 105.300781 333.449219 105 334.574219 104.550781 335.023438 C 104.023438 335.476562 101.773438 335.101562 101.773438 335.101562 " clip-rule="nonzero"/></clipPath></defs><path fill="#fbc718" d="M 375 187.5 C 375 291.054688 291.054688 375 187.5 375 C 83.949219 375 0 291.054688 0 187.5 C 0 83.949219 83.949219 0 187.5 0 C 291.054688 0 375 83.949219 375 187.5 " fill-opacity="1" fill-rule="nonzero"/><path fill="#e62931" d="M 187.484375 328.125 C 137.902344 328.125 97.347656 290.945312 93.75 243.75 L 281.25 243.75 C 277.632812 290.945312 237.054688 328.125 187.484375 328.125 " fill-opacity="1" fill-rule="nonzero"/><path fill="#ffffff" d="M 53.964844 141.019531 C 53.964844 112.007812 77.476562 88.511719 106.472656 88.511719 C 135.453125 88.511719 158.964844 112.007812 158.964844 141.019531 C 158.964844 170.003906 135.453125 193.5 106.472656 193.5 C 77.476562 193.5 53.964844 170.003906 53.964844 141.019531 " fill-opacity="1" fill-rule="nonzero"/><path fill="#5bace3" d="M 106.429688 167.738281 C 106.429688 157.859375 114.433594 149.859375 124.320312 149.859375 C 134.203125 149.859375 142.207031 157.859375 142.207031 167.738281 C 142.207031 177.632812 134.203125 185.640625 124.320312 185.640625 C 114.433594 185.640625 106.429688 177.632812 106.429688 167.738281 " fill-opacity="1" fill-rule="nonzero"/><path fill="#ffffff" d="M 319.648438 141.019531 C 319.648438 112.007812 296.15625 88.535156 267.148438 88.535156 C 238.164062 88.535156 214.648438 112.007812 214.648438 141.019531 C 214.648438 170.003906 238.164062 193.5 267.148438 193.5 C 296.15625 193.5 319.648438 170.003906 319.648438 141.019531 " fill-opacity="1" fill-rule="nonzero"/><path fill="#5bace3" d="M 267.207031 167.738281 C 267.207031 157.859375 259.179688 149.859375 249.28125 149.859375 C 239.417969 149.859375 231.414062 157.859375 231.414062 167.738281 C 231.414062 177.632812 239.417969 185.640625 249.28125 185.640625 C 259.179688 185.640625 267.207031 177.632812 267.207031 167.738281 " fill-opacity="1" fill-rule="nonzero"/><path fill="#242c32" d="M 89.582031 77.234375 C 52.046875 77.234375 21.503906 107.773438 21.503906 145.320312 C 21.503906 182.863281 52.046875 213.414062 89.582031 213.414062 C 127.121094 213.414062 157.660156 182.863281 157.660156 145.320312 C 157.660156 107.773438 127.121094 77.234375 89.582031 77.234375 Z M 89.582031 227.867188 C 44.0625 227.867188 7.03125 190.835938 7.03125 145.320312 C 7.03125 99.800781 44.0625 62.753906 89.582031 62.753906 C 135.109375 62.753906 172.140625 99.800781 172.140625 145.320312 C 172.140625 190.835938 135.109375 227.867188 89.582031 227.867188 " fill-opacity="1" fill-rule="nonzero"/><path fill="#242c32" d="M 285.394531 77.234375 C 247.875 77.234375 217.332031 107.773438 217.332031 145.320312 C 217.332031 182.863281 247.875 213.414062 285.394531 213.414062 C 322.949219 213.414062 353.492188 182.863281 353.492188 145.320312 C 353.492188 107.773438 322.949219 77.234375 285.394531 77.234375 Z M 285.394531 227.867188 C 239.886719 227.867188 202.835938 190.835938 202.835938 145.320312 C 202.835938 99.800781 239.886719 62.753906 285.394531 62.753906 C 330.9375 62.753906 367.96875 99.800781 367.96875 145.320312 C 367.96875 190.835938 330.9375 227.867188 285.394531 227.867188 " fill-opacity="1" fill-rule="nonzero"/><path fill="#242c32" d="M 206.398438 141.835938 L 169.015625 141.835938 C 165.03125 141.835938 161.785156 138.597656 161.785156 134.589844 C 161.785156 130.585938 165.03125 127.339844 169.015625 127.339844 L 206.398438 127.339844 C 210.394531 127.339844 213.636719 130.585938 213.636719 134.589844 C 213.636719 138.597656 210.394531 141.835938 206.398438 141.835938 " fill-opacity="1" fill-rule="nonzero"/><g clip-path="url(#7b417f967b)"><g clip-path="url(#3f536f7d97)"><path fill="#fbc718" d="M 52.125 282.148438 L 107.851562 282.148438 L 107.851562 338.09375 L 52.125 338.09375 Z M 52.125 282.148438 " fill-opacity="1" fill-rule="nonzero"/></g></g></svg>