<svg xmlns="http://www.w3.org/2000/svg" xmlns:xlink="http://www.w3.org/1999/xlink" width="500" zoomAndPan="magnify" viewBox="0 0 375 374.999991" height="500" preserveAspectRatio="xMidYMid meet" version="1.0"><defs><clipPath id="8b39e9b114"><path d="M 3.347656 3.578125 L 375 3.578125 L 375 374.828125 L 3.347656 374.828125 Z M 3.347656 3.578125 " clip-rule="nonzero"/></clipPath><clipPath id="ac45ccbae2"><path d="M 91.761719 0 L 241.761719 0 L 241.761719 130 L 91.761719 130 Z M 91.761719 0 " clip-rule="nonzero"/></clipPath><clipPath id="cf1d735d5a"><path d="M 113 114 L 119 114 L 119 132.839844 L 113 132.839844 Z M 113 114 " clip-rule="nonzero"/></clipPath><clipPath id="e1a33bb549"><path d="M 123 212 L 275 212 L 275 351 L 123 351 Z M 123 212 " clip-rule="nonzero"/></clipPath><clipPath id="2b68d05dfc"><path d="M 273.527344 354.144531 L 123.574219 350.347656 L 127.179688 207.894531 L 277.132812 211.6875 Z M 273.527344 354.144531 " clip-rule="nonzero"/></clipPath><clipPath id="cd8ad0d1f7"><path d="M 273.527344 354.144531 L 123.574219 350.347656 L 127.179688 207.894531 L 277.132812 211.6875 Z M 273.527344 354.144531 " clip-rule="nonzero"/></clipPath><clipPath id="028131dc30"><path d="M 236 237 L 254 237 L 254 266 L 236 266 Z M 236 237 " clip-rule="nonzero"/></clipPath><clipPath id="75d6155387"><path d="M 273.527344 354.144531 L 123.574219 350.347656 L 127.179688 207.894531 L 277.132812 211.6875 Z M 273.527344 354.144531 " clip-rule="nonzero"/></clipPath><clipPath id="4cdca55bbf"><path d="M 273.527344 354.144531 L 123.574219 350.347656 L 127.179688 207.894531 L 277.132812 211.6875 Z M 273.527344 354.144531 " clip-rule="nonzero"/></clipPath><clipPath id="b658600295"><path d="M 250 211 L 256 211 L 256 230 L 250 230 Z M 250 211 " clip-rule="nonzero"/></clipPath><clipPath id="5d6780bf91"><path d="M 273.527344 354.144531 L 123.574219 350.347656 L 127.179688 207.894531 L 277.132812 211.6875 Z M 273.527344 354.144531 " clip-rule="nonzero"/></clipPath><clipPath id="6cb56f5bf6"><path d="M 273.527344 354.144531 L 123.574219 350.347656 L 127.179688 207.894531 L 277.132812 211.6875 Z M 273.527344 354.144531 " clip-rule="nonzero"/></clipPath></defs><path fill="#ffbf18" d="M 53.730469 343.457031 C 52.640625 343.457031 51.550781 343.238281 50.679688 342.800781 C 48.496094 341.496094 47.40625 339.535156 47.40625 337.136719 L 47.40625 313.171875 C 30.402344 307.289062 18.410156 291.382812 18.410156 273.082031 C 18.410156 249.769531 37.597656 230.816406 60.707031 230.816406 L 135.277344 230.816406 C 158.605469 230.816406 177.574219 249.769531 177.574219 273.082031 C 177.574219 296.394531 158.605469 315.351562 135.277344 315.351562 L 99.953125 315.351562 L 57 342.582031 C 55.910156 343.238281 54.820312 343.457031 53.730469 343.457031 Z M 53.730469 216.21875 C 52.640625 216.21875 51.550781 215.785156 50.679688 215.347656 C 48.496094 214.257812 47.40625 212.078125 47.40625 209.902344 L 47.40625 185.71875 C 30.402344 180.054688 18.410156 163.929688 18.410156 145.628906 C 18.410156 122.316406 37.597656 103.363281 60.707031 103.363281 L 135.277344 103.363281 C 158.605469 103.363281 177.574219 122.316406 177.574219 145.628906 C 177.574219 168.941406 158.605469 187.894531 135.277344 187.894531 L 99.953125 187.894531 L 57 215.128906 C 55.910156 215.785156 54.820312 216.21875 53.730469 216.21875 Z M 53.730469 216.21875 " fill-opacity="1" fill-rule="evenodd"/><path fill="#114de2" d="M 324.964844 275.261719 C 323.875 275.261719 322.785156 275.042969 321.695312 274.390625 L 278.742188 247.15625 L 243.421875 247.15625 C 220.089844 247.15625 201.121094 228.203125 201.121094 204.890625 C 201.121094 181.578125 220.089844 162.625 243.421875 162.625 L 317.769531 162.625 C 341.101562 162.625 360.070312 181.578125 360.070312 204.890625 C 360.070312 223.191406 348.296875 239.3125 331.289062 244.976562 L 331.289062 268.945312 C 331.289062 271.339844 330.199219 273.519531 328.019531 274.609375 C 327.144531 275.042969 326.054688 275.261719 324.964844 275.261719 Z M 324.964844 147.15625 C 323.875 147.15625 322.785156 146.9375 321.695312 146.285156 L 278.742188 119.050781 L 243.421875 119.050781 C 220.089844 119.050781 201.121094 100.09375 201.121094 76.78125 C 201.121094 53.472656 220.089844 34.515625 243.421875 34.515625 L 317.769531 34.515625 C 341.101562 34.515625 360.070312 53.472656 360.070312 76.78125 C 360.070312 95.082031 348.296875 111.207031 331.289062 116.871094 L 331.289062 140.835938 C 331.289062 143.234375 330.199219 145.410156 328.019531 146.5 C 327.144531 146.9375 326.054688 147.15625 324.964844 147.15625 Z M 324.964844 147.15625 " fill-opacity="1" fill-rule="evenodd"/><path fill="#ffbf18" d="M 320.824219 83.101562 L 240.585938 83.101562 C 237.097656 83.101562 234.261719 80.269531 234.261719 76.78125 C 234.261719 73.296875 237.097656 70.464844 240.585938 70.464844 L 320.824219 70.464844 C 324.3125 70.464844 327.144531 73.296875 327.144531 76.78125 C 327.144531 80.269531 324.3125 83.101562 320.824219 83.101562 Z M 320.824219 83.101562 " fill-opacity="1" fill-rule="evenodd"/><path fill="#114de2" d="M 138.109375 151.949219 L 57.875 151.949219 C 54.386719 151.949219 51.550781 149.117188 51.550781 145.628906 C 51.550781 142.144531 54.386719 139.3125 57.875 139.3125 L 138.109375 139.3125 C 141.597656 139.3125 144.433594 142.144531 144.433594 145.628906 C 144.433594 149.117188 141.597656 151.949219 138.109375 151.949219 Z M 142.6875 278.746094 L 127.425781 278.746094 C 123.9375 278.746094 121.105469 275.914062 121.105469 272.429688 C 121.105469 268.945312 123.9375 266.113281 127.425781 266.113281 L 142.6875 266.113281 C 146.175781 266.113281 148.792969 268.945312 148.792969 272.429688 C 148.792969 275.914062 146.175781 278.746094 142.6875 278.746094 Z M 105.625 278.746094 L 90.359375 278.746094 C 86.871094 278.746094 84.039062 275.914062 84.039062 272.429688 C 84.039062 268.945312 86.871094 266.113281 90.359375 266.113281 L 105.625 266.113281 C 109.113281 266.113281 111.945312 268.945312 111.945312 272.429688 C 111.945312 275.914062 109.113281 278.746094 105.625 278.746094 Z M 68.558594 278.746094 L 53.511719 278.746094 C 50.023438 278.746094 47.191406 275.914062 47.191406 272.429688 C 47.191406 268.945312 50.023438 266.113281 53.511719 266.113281 L 68.558594 266.113281 C 72.265625 266.113281 74.878906 268.945312 74.878906 272.429688 C 74.878906 275.914062 72.046875 278.746094 68.558594 278.746094 Z M 68.558594 278.746094 " fill-opacity="1" fill-rule="evenodd"/><path fill="#ffbf18" d="M 320.824219 211.207031 L 240.585938 211.207031 C 237.097656 211.207031 234.261719 208.375 234.261719 204.890625 C 234.261719 201.402344 237.097656 198.570312 240.585938 198.570312 L 320.824219 198.570312 C 324.3125 198.570312 327.144531 201.402344 327.144531 204.890625 C 327.144531 208.375 324.3125 211.207031 320.824219 211.207031 Z M 320.824219 211.207031 " fill-opacity="1" fill-rule="evenodd"/><g clip-path="url(#8b39e9b114)"><path fill="#ffac16" d="M 276.125 337.789062 C 263.480469 337.789062 253.234375 327.769531 253.234375 315.132812 C 253.234375 302.496094 263.480469 292.257812 276.125 292.257812 C 288.773438 292.257812 299.019531 302.496094 299.019531 315.132812 C 299.019531 327.769531 288.773438 337.789062 276.125 337.789062 Z M 342.625 374.828125 C 324.746094 374.828125 309.921875 360.230469 309.921875 342.148438 C 309.921875 324.28125 324.746094 309.46875 342.625 309.46875 C 360.722656 309.46875 375.332031 324.28125 375.332031 342.148438 C 375.332031 360.230469 360.722656 374.828125 342.625 374.828125 Z M 102.789062 86.152344 C 90.144531 86.152344 79.894531 75.910156 79.894531 63.492188 C 79.894531 50.855469 90.144531 40.617188 102.789062 40.617188 C 115.214844 40.617188 125.464844 50.855469 125.464844 63.492188 C 125.464844 75.910156 115.214844 86.152344 102.789062 86.152344 Z M 36.070312 68.941406 C 18.191406 68.941406 3.363281 54.34375 3.363281 36.257812 C 3.363281 18.394531 18.191406 3.578125 36.070312 3.578125 C 54.167969 3.578125 68.773438 18.394531 68.773438 36.257812 C 68.773438 54.34375 54.167969 68.941406 36.070312 68.941406 Z M 36.070312 68.941406 " fill-opacity="1" fill-rule="evenodd"/></g><g clip-path="url(#ac45ccbae2)"><path fill="#ffbf18" d="M 93.003906 39.511719 L 139.941406 67.234375 L 138.726562 88.855469 C 138.726562 89.1875 138.785156 89.503906 138.90625 89.8125 C 139.027344 90.117188 139.203125 90.390625 139.429688 90.632812 C 139.65625 90.875 139.917969 91.0625 140.214844 91.203125 C 140.515625 91.34375 140.828125 91.421875 141.15625 91.441406 L 160.503906 91.882812 L 189.339844 128.246094 C 189.84375 128.871094 190.5 129.1875 191.304688 129.203125 L 191.71875 129.203125 C 192.160156 129.117188 192.554688 128.929688 192.902344 128.640625 C 193.246094 128.351562 193.5 127.996094 193.65625 127.574219 L 241.605469 -6.417969 C 241.617188 -6.539062 241.617188 -6.660156 241.605469 -6.78125 C 241.617188 -6.882812 241.617188 -6.988281 241.605469 -7.089844 C 241.65625 -7.382812 241.65625 -7.675781 241.605469 -7.972656 C 241.539062 -8.285156 241.410156 -8.570312 241.21875 -8.824219 L 240.984375 -9.082031 L 240.726562 -9.339844 L 240.570312 -9.339844 L 240.234375 -9.496094 C 240.070312 -9.574219 239.898438 -9.625 239.71875 -9.652344 L 239.382812 -9.652344 C 239.140625 -9.703125 238.898438 -9.703125 238.65625 -9.652344 L 238.449219 -9.652344 L 93.625 34.933594 C 93.160156 35.089844 92.773438 35.359375 92.460938 35.734375 C 92.148438 36.113281 91.957031 36.542969 91.890625 37.027344 C 91.824219 37.515625 91.894531 37.980469 92.09375 38.429688 C 92.292969 38.875 92.597656 39.238281 93.003906 39.511719 Z M 143.847656 86.554688 L 144.675781 72.046875 L 156.417969 86.867188 Z M 190.398438 121.519531 L 146.875 66.796875 L 234.003906 -0.109375 Z M 226.605469 -0.78125 L 143.148438 63.355469 L 100.398438 38.089844 Z M 226.605469 -0.78125 " fill-opacity="1" fill-rule="nonzero"/></g><path fill="#ffbf18" d="M 116.847656 106.804688 L 117.390625 106.804688 C 117.671875 106.796875 117.941406 106.746094 118.207031 106.648438 C 118.46875 106.550781 118.710938 106.417969 118.929688 106.242188 C 119.148438 106.066406 119.335938 105.863281 119.488281 105.625 C 119.640625 105.390625 119.75 105.136719 119.820312 104.867188 C 120.789062 100.703125 122.199219 96.699219 124.054688 92.851562 C 125.910156 89.003906 128.164062 85.40625 130.8125 82.054688 C 131.011719 81.800781 131.15625 81.519531 131.25 81.214844 C 131.34375 80.90625 131.375 80.59375 131.351562 80.273438 C 131.328125 79.953125 131.246094 79.648438 131.109375 79.355469 C 130.972656 79.066406 130.789062 78.8125 130.554688 78.589844 C 130.292969 78.390625 130 78.25 129.683594 78.164062 C 129.367188 78.078125 129.046875 78.050781 128.71875 78.085938 C 128.390625 78.125 128.082031 78.21875 127.792969 78.371094 C 127.503906 78.527344 127.25 78.726562 127.039062 78.976562 C 124.140625 82.617188 121.675781 86.53125 119.652344 90.722656 C 117.628906 94.910156 116.089844 99.273438 115.039062 103.804688 C 114.972656 104.125 114.96875 104.441406 115.023438 104.761719 C 115.078125 105.082031 115.1875 105.378906 115.355469 105.660156 C 115.523438 105.9375 115.738281 106.175781 115.996094 106.371094 C 116.25 106.570312 116.535156 106.714844 116.847656 106.804688 Z M 116.847656 106.804688 " fill-opacity="1" fill-rule="nonzero"/><g clip-path="url(#cf1d735d5a)"><path fill="#ffbf18" d="M 113.382812 116.246094 L 113.382812 129.175781 C 113.328125 129.367188 113.300781 129.5625 113.292969 129.761719 C 113.285156 129.960938 113.300781 130.15625 113.339844 130.351562 C 113.378906 130.546875 113.4375 130.734375 113.519531 130.917969 C 113.601562 131.097656 113.703125 131.265625 113.824219 131.425781 C 113.945312 131.582031 114.082031 131.726562 114.234375 131.851562 C 114.386719 131.976562 114.554688 132.085938 114.730469 132.171875 C 114.910156 132.261719 115.097656 132.328125 115.289062 132.371094 C 115.484375 132.417969 115.679688 132.441406 115.878906 132.441406 C 116.078125 132.441406 116.273438 132.417969 116.464844 132.371094 C 116.660156 132.328125 116.84375 132.261719 117.023438 132.171875 C 117.203125 132.085938 117.367188 131.976562 117.519531 131.851562 C 117.675781 131.726562 117.8125 131.582031 117.933594 131.425781 C 118.054688 131.265625 118.152344 131.097656 118.234375 130.917969 C 118.316406 130.734375 118.378906 130.546875 118.414062 130.351562 C 118.453125 130.15625 118.46875 129.960938 118.460938 129.761719 C 118.457031 129.5625 118.425781 129.367188 118.375 129.175781 L 118.375 116.246094 C 118.300781 115.972656 118.183594 115.714844 118.023438 115.480469 C 117.867188 115.246094 117.675781 115.039062 117.449219 114.867188 C 117.222656 114.695312 116.976562 114.5625 116.707031 114.472656 C 116.4375 114.382812 116.160156 114.335938 115.878906 114.335938 C 115.59375 114.335938 115.316406 114.382812 115.046875 114.472656 C 114.78125 114.5625 114.53125 114.695312 114.308594 114.867188 C 114.082031 115.039062 113.890625 115.246094 113.730469 115.480469 C 113.574219 115.714844 113.457031 115.972656 113.382812 116.246094 Z M 113.382812 116.246094 " fill-opacity="1" fill-rule="nonzero"/></g><g clip-path="url(#e1a33bb549)"><g clip-path="url(#2b68d05dfc)"><g clip-path="url(#cd8ad0d1f7)"><path fill="#ffbf18" d="M 273.53125 304.957031 L 227.308594 276.054688 L 229.070312 254.46875 C 229.078125 254.140625 229.027344 253.820312 228.914062 253.511719 C 228.800781 253.203125 228.632812 252.921875 228.414062 252.675781 C 228.191406 252.429688 227.933594 252.234375 227.640625 252.085938 C 227.34375 251.941406 227.03125 251.851562 226.703125 251.824219 L 207.375 250.894531 L 179.46875 213.816406 C 178.980469 213.179688 178.332031 212.84375 177.527344 212.808594 L 177.117188 212.796875 C 176.671875 212.871094 176.269531 213.046875 175.917969 213.328125 C 175.566406 213.609375 175.304688 213.960938 175.136719 214.378906 L 123.8125 347.113281 C 123.796875 347.234375 123.792969 347.355469 123.804688 347.476562 C 123.789062 347.578125 123.785156 347.683594 123.796875 347.785156 C 123.738281 348.078125 123.730469 348.371094 123.773438 348.664062 C 123.832031 348.980469 123.953125 349.265625 124.140625 349.527344 L 124.367188 349.792969 L 124.617188 350.058594 L 124.773438 350.0625 L 125.105469 350.226562 C 125.269531 350.304688 125.441406 350.359375 125.617188 350.394531 L 125.953125 350.402344 C 126.195312 350.460938 126.4375 350.464844 126.679688 350.417969 L 126.886719 350.425781 L 272.792969 309.515625 C 273.261719 309.371094 273.65625 309.113281 273.976562 308.746094 C 274.300781 308.375 274.5 307.949219 274.578125 307.464844 C 274.65625 306.980469 274.601562 306.515625 274.410156 306.0625 C 274.222656 305.609375 273.929688 305.242188 273.53125 304.957031 Z M 223.890625 256.640625 L 222.699219 271.125 L 211.335938 256.015625 Z M 178.238281 220.511719 L 220.367188 276.316406 L 131.574219 340.996094 Z M 138.949219 341.855469 L 224.003906 279.851562 L 266.101562 306.191406 Z M 138.949219 341.855469 " fill-opacity="1" fill-rule="nonzero"/></g></g></g><g clip-path="url(#028131dc30)"><g clip-path="url(#75d6155387)"><g clip-path="url(#4cdca55bbf)"><path fill="#ffbf18" d="M 251.394531 237.082031 L 250.851562 237.066406 C 250.570312 237.070312 250.300781 237.113281 250.035156 237.203125 C 249.765625 237.292969 249.523438 237.421875 249.300781 237.59375 C 249.074219 237.761719 248.882812 237.960938 248.726562 238.191406 C 248.566406 238.425781 248.449219 238.675781 248.375 238.945312 C 247.300781 243.078125 245.789062 247.046875 243.835938 250.847656 C 241.886719 254.648438 239.542969 258.1875 236.808594 261.46875 C 236.605469 261.71875 236.453125 261.996094 236.351562 262.300781 C 236.25 262.605469 236.207031 262.917969 236.222656 263.238281 C 236.238281 263.558594 236.3125 263.867188 236.441406 264.160156 C 236.574219 264.453125 236.753906 264.714844 236.980469 264.941406 C 237.238281 265.144531 237.523438 265.292969 237.839844 265.390625 C 238.152344 265.484375 238.472656 265.515625 238.800781 265.488281 C 239.128906 265.460938 239.441406 265.375 239.734375 265.226562 C 240.027344 265.082031 240.285156 264.886719 240.503906 264.640625 C 243.496094 261.078125 246.054688 257.226562 248.183594 253.089844 C 250.316406 248.953125 251.964844 244.632812 253.128906 240.125 C 253.203125 239.808594 253.214844 239.492188 253.167969 239.171875 C 253.121094 238.847656 253.015625 238.546875 252.855469 238.265625 C 252.695312 237.984375 252.488281 237.742188 252.238281 237.535156 C 251.984375 237.332031 251.703125 237.179688 251.394531 237.082031 Z M 251.394531 237.082031 " fill-opacity="1" fill-rule="nonzero"/></g></g></g><g clip-path="url(#b658600295)"><g clip-path="url(#5d6780bf91)"><g clip-path="url(#6cb56f5bf6)"><path fill="#ffbf18" d="M 255.097656 227.734375 L 255.425781 214.804688 C 255.484375 214.613281 255.515625 214.421875 255.53125 214.222656 C 255.542969 214.023438 255.53125 213.828125 255.496094 213.632812 C 255.464844 213.433594 255.410156 213.246094 255.332031 213.0625 C 255.253906 212.878906 255.160156 212.707031 255.042969 212.546875 C 254.925781 212.386719 254.792969 212.238281 254.640625 212.109375 C 254.492188 211.980469 254.328125 211.867188 254.152344 211.777344 C 253.976562 211.683594 253.792969 211.613281 253.601562 211.5625 C 253.40625 211.511719 253.210938 211.484375 253.011719 211.480469 C 252.816406 211.472656 252.617188 211.492188 252.421875 211.53125 C 252.230469 211.570312 252.042969 211.632812 251.859375 211.71875 C 251.679688 211.800781 251.511719 211.902344 251.355469 212.027344 C 251.199219 212.148438 251.058594 212.289062 250.933594 212.441406 C 250.808594 212.597656 250.703125 212.765625 250.617188 212.941406 C 250.53125 213.121094 250.46875 213.308594 250.421875 213.503906 C 250.378906 213.695312 250.359375 213.894531 250.363281 214.089844 C 250.363281 214.289062 250.390625 214.484375 250.4375 214.679688 L 250.109375 227.605469 C 250.175781 227.882812 250.285156 228.140625 250.4375 228.378906 C 250.589844 228.617188 250.777344 228.828125 251 229.003906 C 251.21875 229.183594 251.464844 229.320312 251.730469 229.417969 C 251.996094 229.515625 252.273438 229.570312 252.554688 229.578125 C 252.839844 229.582031 253.117188 229.546875 253.386719 229.460938 C 253.660156 229.378906 253.910156 229.25 254.140625 229.085938 C 254.367188 228.917969 254.566406 228.71875 254.730469 228.488281 C 254.894531 228.257812 255.015625 228.003906 255.097656 227.734375 Z M 255.097656 227.734375 " fill-opacity="1" fill-rule="nonzero"/></g></g></g></svg>